<svg viewBox="0 0 980 208" width="980" height="208" xmlns="http://www.w3.org/2000/svg"><defs><clipPath id="statsClip"><rect x="0" y="0" width="980" height="208" rx="14"/></clipPath></defs><rect x="0" y="0" width="980" height="208" rx="14" fill="#191724" stroke="#26233a" stroke-width="1.5"/><g clip-path="url(#statsClip)"><rect x="0" y="0" width="980" height="26" fill="#1f1d2e"/><circle cx="16" cy="13.0" r="3.5" fill="#9ccfd8"><animate attributeName="opacity" values="1;0.35;1" dur="2s" repeatCount="indefinite"/></circle><text x="26" y="17.0" font-family="Sora, 'Segoe UI', -apple-system, sans-serif" font-size="11" fill="#908caa">git log --stat --author=StazixLS</text><text x="964" y="17.0" font-family="Sora, 'Segoe UI', -apple-system, sans-serif" font-size="10.5" fill="#908caa" text-anchor="end" opacity="0.75">Summer</text><line x1="0" y1="26" x2="980" y2="26" stroke="#26233a" stroke-width="1"/><g transform="translate(0,26)"><rect x="0" y="0" width="980" height="86" fill="#1f1d2e"/><rect x="0" y="0" width="980" height="86" fill="#1f1d2e"/><g transform="translate(0,0)"><animateTransform attributeName="transform" type="rotate" from="0 70 46" to="360 70 46" dur="40s" repeatCount="indefinite"/><circle cx="70" cy="46" r="21.1" fill="#f6c177"/><line x1="96.5" y1="46.0" x2="105.7" y2="46.0" stroke="#f6c177" stroke-width="1.6" stroke-linecap="round"/><line x1="91.5" y1="61.6" x2="98.9" y2="67.0" stroke="#f6c177" stroke-width="1.6" stroke-linecap="round"/><line x1="78.2" y1="71.2" x2="81.0" y2="80.0" stroke="#f6c177" stroke-width="1.6" stroke-linecap="round"/><line x1="61.8" y1="71.2" x2="59.0" y2="80.0" stroke="#f6c177" stroke-width="1.6" stroke-linecap="round"/><line x1="48.5" y1="61.6" x2="41.1" y2="67.0" stroke="#f6c177" stroke-width="1.6" stroke-linecap="round"/><line x1="43.5" y1="46.0" x2="34.3" y2="46.0" stroke="#f6c177" stroke-width="1.6" stroke-linecap="round"/><line x1="48.5" y1="30.4" x2="41.1" y2="25.0" stroke="#f6c177" stroke-width="1.6" stroke-linecap="round"/><line x1="61.8" y1="20.8" x2="59.0" y2="12.0" stroke="#f6c177" stroke-width="1.6" stroke-linecap="round"/><line x1="78.2" y1="20.8" x2="81.0" y2="12.0" stroke="#f6c177" stroke-width="1.6" stroke-linecap="round"/><line x1="91.5" y1="30.4" x2="98.9" y2="25.0" stroke="#f6c177" stroke-width="1.6" stroke-linecap="round"/></g><g transform="translate(490.0,56)"><animateTransform attributeName="transform" type="translate" additive="sum" values="0 0;0 -8.8;0 0" keyTimes="0;0.5;1" dur="1.8s" repeatCount="indefinite"/><g><animateTransform attributeName="transform" type="rotate" from="0" to="360" dur="3.6s" repeatCount="indefinite"/><circle r="16" fill="#f6c177"/><path d="M0,0 L16.0,0.0 A16,16 0 0,1 8.0,13.9 Z" fill="#ea9a97"/><path d="M0,0 L8.0,13.9 A16,16 0 0,1 -8.0,13.9 Z" fill="#9ccfd8"/><path d="M0,0 L-8.0,13.9 A16,16 0 0,1 -16.0,0.0 Z" fill="#c4a7e7"/><path d="M0,0 L-16.0,0.0 A16,16 0 0,1 -8.0,-13.9 Z" fill="#f6c177"/><path d="M0,0 L-8.0,-13.9 A16,16 0 0,1 8.0,-13.9 Z" fill="#ea9a97"/><path d="M0,0 L8.0,-13.9 A16,16 0 0,1 16.0,-0.0 Z" fill="#9ccfd8"/></g></g><g transform="translate(803.5999999999999,60)"><animateTransform attributeName="transform" type="translate" additive="sum" values="0 0;0 -6.6;0 0" keyTimes="0;0.5;1" dur="1.8s" repeatCount="indefinite"/><g><animateTransform attributeName="transform" type="rotate" from="0" to="360" dur="3.6s" repeatCount="indefinite"/><circle r="12" fill="#f6c177"/><path d="M0,0 L12.0,0.0 A12,12 0 0,1 6.0,10.4 Z" fill="#c4a7e7"/><path d="M0,0 L6.0,10.4 A12,12 0 0,1 -6.0,10.4 Z" fill="#ea9a97"/><path d="M0,0 L-6.0,10.4 A12,12 0 0,1 -12.0,0.0 Z" fill="#9ccfd8"/><path d="M0,0 L-12.0,0.0 A12,12 0 0,1 -6.0,-10.4 Z" fill="#f6c177"/><path d="M0,0 L-6.0,-10.4 A12,12 0 0,1 6.0,-10.4 Z" fill="#c4a7e7"/><path d="M0,0 L6.0,-10.4 A12,12 0 0,1 12.0,-0.0 Z" fill="#ea9a97"/></g></g></g><line x1="0" y1="112" x2="980" y2="112" stroke="#26233a" stroke-width="1"/><g opacity="0" transform="translate(122.5,160.0)"><animate attributeName="opacity" from="0" to="1" begin="0.15s" dur="0.5s" fill="freeze"/><animateTransform attributeName="transform" type="translate" from="122.5 170.0" to="122.5 160.0" begin="0.15s" dur="0.5s" fill="freeze"/><text x="0" y="-6" font-family="Sora, 'Segoe UI', -apple-system, sans-serif" font-size="30" font-weight="700" fill="#ea9a97" text-anchor="middle">250</text><text x="0" y="20" font-family="Sora, 'Segoe UI', -apple-system, sans-serif" font-size="11.5" fill="#908caa" text-anchor="middle">Contributions (1y)</text></g><g opacity="0" transform="translate(367.5,160.0)"><animate attributeName="opacity" from="0" to="1" begin="0.27s" dur="0.5s" fill="freeze"/><animateTransform attributeName="transform" type="translate" from="367.5 170.0" to="367.5 160.0" begin="0.27s" dur="0.5s" fill="freeze"/><text x="0" y="-6" font-family="Sora, 'Segoe UI', -apple-system, sans-serif" font-size="30" font-weight="700" fill="#f6c177" text-anchor="middle">8</text><text x="0" y="20" font-family="Sora, 'Segoe UI', -apple-system, sans-serif" font-size="11.5" fill="#908caa" text-anchor="middle">Day streak</text></g><line x1="245.0" y1="130" x2="245.0" y2="190" stroke="#26233a" stroke-width="1"/><g opacity="0" transform="translate(612.5,160.0)"><animate attributeName="opacity" from="0" to="1" begin="0.39s" dur="0.5s" fill="freeze"/><animateTransform attributeName="transform" type="translate" from="612.5 170.0" to="612.5 160.0" begin="0.39s" dur="0.5s" fill="freeze"/><text x="0" y="-6" font-family="Sora, 'Segoe UI', -apple-system, sans-serif" font-size="30" font-weight="700" fill="#9ccfd8" text-anchor="middle">2</text><text x="0" y="20" font-family="Sora, 'Segoe UI', -apple-system, sans-serif" font-size="11.5" fill="#908caa" text-anchor="middle">Repositories</text></g><line x1="490.0" y1="130" x2="490.0" y2="190" stroke="#26233a" stroke-width="1"/><g opacity="0" transform="translate(857.5,160.0)"><animate attributeName="opacity" from="0" to="1" begin="0.51s" dur="0.5s" fill="freeze"/><animateTransform attributeName="transform" type="translate" from="857.5 170.0" to="857.5 160.0" begin="0.51s" dur="0.5s" fill="freeze"/><text x="0" y="-6" font-family="Sora, 'Segoe UI', -apple-system, sans-serif" font-size="30" font-weight="700" fill="#c4a7e7" text-anchor="middle">2024</text><text x="0" y="20" font-family="Sora, 'Segoe UI', -apple-system, sans-serif" font-size="11.5" fill="#908caa" text-anchor="middle">On GitHub since</text></g><line x1="735.0" y1="130" x2="735.0" y2="190" stroke="#26233a" stroke-width="1"/></g></svg>