<svg viewBox="0 0 980 634" width="980" height="634" xmlns="http://www.w3.org/2000/svg"><rect width="980" height="634" fill="#191724"/><text x="16" y="22" font-family="Sora, 'Segoe UI', -apple-system, sans-serif" font-size="13" font-weight="600" fill="#e0def4">ve_day</text><g transform="translate(0,28)"><defs><clipPath id="statsClip"><rect x="0" y="0" width="980" height="122" rx="14"/></clipPath></defs><rect x="0" y="0" width="980" height="122" rx="14" fill="#191724" stroke="#26233a" stroke-width="1.5"/><g clip-path="url(#statsClip)"><rect x="0" y="0" width="980" height="26" fill="#1f1d2e"/><circle cx="16" cy="13.0" r="3.5" fill="#9ccfd8"><animate attributeName="opacity" values="1;0.35;1" dur="2s" repeatCount="indefinite"/></circle><text x="26" y="17.0" font-family="Sora, 'Segoe UI', -apple-system, sans-serif" font-size="11" fill="#908caa">git log --stat --author=StazixLS</text><text x="964" y="17.0" font-family="Sora, 'Segoe UI', -apple-system, sans-serif" font-size="10.5" fill="#908caa" text-anchor="end" opacity="0.75">V-E Day</text><line x1="0" y1="26" x2="980" y2="26" stroke="#26233a" stroke-width="1"/><rect x="0" y="26" width="980" height="96" fill="#1f1d2e"/><g transform="translate(0,26)" opacity="0.55"><path d="M453.2,82.0 L453.2,18.0 L526.8,18.0 L526.8,82.0 Z M473.8,82.0 L473.8,44.9 A16.2,26.9 0 0,1 506.2,44.9 L506.2,82.0 Z" fill="#908caa" fill-rule="evenodd"/><g transform="translate(490.0,76)"><path d="M0,10 Q-5.0,2.0 0,-10 Q5.0,2.0 0,10 Z" fill="#f6c177"><animate attributeName="d" dur="1.4s" repeatCount="indefinite" values="M0,10 Q-5.0,2.0 0,-10 Q5.0,2.0 0,10 Z;M0,10 Q-3.5,1.5 0,-8.5 Q3.5,1.5 0,10 Z;M0,10 Q-5.0,2.0 0,-10 Q5.0,2.0 0,10 Z"/></path><circle r="16.0" fill="#ea9a97" opacity="0.12"/></g><g transform="translate(294.0,68)"><animateTransform attributeName="transform" type="rotate" values="-4;4;-4" begin="0.0s" dur="3s" repeatCount="indefinite" additive="sum"/><line x1="0" y1="0" x2="4.5" y2="0.0" stroke="#4a6fa5" stroke-width="1.6" stroke-linecap="round"/><line x1="0" y1="0" x2="3.2" y2="3.2" stroke="#4a6fa5" stroke-width="1.6" stroke-linecap="round"/><line x1="0" y1="0" x2="0.0" y2="4.5" stroke="#4a6fa5" stroke-width="1.6" stroke-linecap="round"/><line x1="0" y1="0" x2="-3.2" y2="3.2" stroke="#4a6fa5" stroke-width="1.6" stroke-linecap="round"/><line x1="0" y1="0" x2="-4.5" y2="0.0" stroke="#4a6fa5" stroke-width="1.6" stroke-linecap="round"/><line x1="0" y1="0" x2="-3.2" y2="-3.2" stroke="#4a6fa5" stroke-width="1.6" stroke-linecap="round"/><line x1="0" y1="0" x2="-0.0" y2="-4.5" stroke="#4a6fa5" stroke-width="1.6" stroke-linecap="round"/><line x1="0" y1="0" x2="3.2" y2="-3.2" stroke="#4a6fa5" stroke-width="1.6" stroke-linecap="round"/><circle cx="0" cy="0" r="1.3" fill="#faf4ed"/></g><g transform="translate(686.0,68)"><animateTransform attributeName="transform" type="rotate" values="-4;4;-4" begin="0.4s" dur="3s" repeatCount="indefinite" additive="sum"/><line x1="0" y1="0" x2="4.5" y2="0.0" stroke="#4a6fa5" stroke-width="1.6" stroke-linecap="round"/><line x1="0" y1="0" x2="3.2" y2="3.2" stroke="#4a6fa5" stroke-width="1.6" stroke-linecap="round"/><line x1="0" y1="0" x2="0.0" y2="4.5" stroke="#4a6fa5" stroke-width="1.6" stroke-linecap="round"/><line x1="0" y1="0" x2="-3.2" y2="3.2" stroke="#4a6fa5" stroke-width="1.6" stroke-linecap="round"/><line x1="0" y1="0" x2="-4.5" y2="0.0" stroke="#4a6fa5" stroke-width="1.6" stroke-linecap="round"/><line x1="0" y1="0" x2="-3.2" y2="-3.2" stroke="#4a6fa5" stroke-width="1.6" stroke-linecap="round"/><line x1="0" y1="0" x2="-0.0" y2="-4.5" stroke="#4a6fa5" stroke-width="1.6" stroke-linecap="round"/><line x1="0" y1="0" x2="3.2" y2="-3.2" stroke="#4a6fa5" stroke-width="1.6" stroke-linecap="round"/><circle cx="0" cy="0" r="1.3" fill="#faf4ed"/></g><path d="M370.0,20.0 L384.0,20.0 L377.0,36.0 Z" fill="#0055A4" opacity="0.9"><animateTransform attributeName="transform" type="rotate" values="0 377.0 20;6 377.0 20;0 377.0 20" begin="0.00s" dur="2.6s" repeatCount="indefinite"/></path><path d="M400.0,20.0 L414.0,20.0 L407.0,36.0 Z" fill="#FFFFFF" opacity="0.9"><animateTransform attributeName="transform" type="rotate" values="0 407.0 20;-6 407.0 20;0 407.0 20" begin="0.15s" dur="2.6s" repeatCount="indefinite"/></path><path d="M430.0,20.0 L444.0,20.0 L437.0,36.0 Z" fill="#EF4135" opacity="0.9"><animateTransform attributeName="transform" type="rotate" values="0 437.0 20;6 437.0 20;0 437.0 20" begin="0.30s" dur="2.6s" repeatCount="indefinite"/></path><path d="M460.0,20.0 L474.0,20.0 L467.0,36.0 Z" fill="#0055A4" opacity="0.9"><animateTransform attributeName="transform" type="rotate" values="0 467.0 20;-6 467.0 20;0 467.0 20" begin="0.45s" dur="2.6s" repeatCount="indefinite"/></path><path d="M490.0,20.0 L504.0,20.0 L497.0,36.0 Z" fill="#FFFFFF" opacity="0.9"><animateTransform attributeName="transform" type="rotate" values="0 497.0 20;6 497.0 20;0 497.0 20" begin="0.60s" dur="2.6s" repeatCount="indefinite"/></path><path d="M520.0,20.0 L534.0,20.0 L527.0,36.0 Z" fill="#EF4135" opacity="0.9"><animateTransform attributeName="transform" type="rotate" values="0 527.0 20;-6 527.0 20;0 527.0 20" begin="0.75s" dur="2.6s" repeatCount="indefinite"/></path><path d="M550.0,20.0 L564.0,20.0 L557.0,36.0 Z" fill="#0055A4" opacity="0.9"><animateTransform attributeName="transform" type="rotate" values="0 557.0 20;6 557.0 20;0 557.0 20" begin="0.90s" dur="2.6s" repeatCount="indefinite"/></path><path d="M580.0,20.0 L594.0,20.0 L587.0,36.0 Z" fill="#FFFFFF" opacity="0.9"><animateTransform attributeName="transform" type="rotate" values="0 587.0 20;-6 587.0 20;0 587.0 20" begin="1.05s" dur="2.6s" repeatCount="indefinite"/></path><path d="M610.0,20.0 L624.0,20.0 L617.0,36.0 Z" fill="#EF4135" opacity="0.9"><animateTransform attributeName="transform" type="rotate" values="0 617.0 20;6 617.0 20;0 617.0 20" begin="1.20s" dur="2.6s" repeatCount="indefinite"/></path><path d="M370.0,20.0 Q490.0,32.0 610.0,20.0" fill="none" stroke="#908caa" stroke-width="1" opacity="0.4"/></g><g opacity="0" transform="translate(122.5,74.0)"><animate attributeName="opacity" from="0" to="1" begin="0.15s" dur="0.5s" fill="freeze"/><animateTransform attributeName="transform" type="translate" from="122.5 84.0" to="122.5 74.0" begin="0.15s" dur="0.5s" fill="freeze"/><text x="0" y="-6" font-family="Sora, 'Segoe UI', -apple-system, sans-serif" font-size="30" font-weight="700" fill="#ea9a97" text-anchor="middle">241</text><text x="0" y="20" font-family="Sora, 'Segoe UI', -apple-system, sans-serif" font-size="11.5" fill="#908caa" text-anchor="middle">Contributions (1y)</text></g><g opacity="0" transform="translate(367.5,74.0)"><animate attributeName="opacity" from="0" to="1" begin="0.27s" dur="0.5s" fill="freeze"/><animateTransform attributeName="transform" type="translate" from="367.5 84.0" to="367.5 74.0" begin="0.27s" dur="0.5s" fill="freeze"/><text x="0" y="-6" font-family="Sora, 'Segoe UI', -apple-system, sans-serif" font-size="30" font-weight="700" fill="#f6c177" text-anchor="middle">8</text><text x="0" y="20" font-family="Sora, 'Segoe UI', -apple-system, sans-serif" font-size="11.5" fill="#908caa" text-anchor="middle">Day streak</text></g><line x1="245.0" y1="44" x2="245.0" y2="104" stroke="#26233a" stroke-width="1"/><g opacity="0" transform="translate(612.5,74.0)"><animate attributeName="opacity" from="0" to="1" begin="0.39s" dur="0.5s" fill="freeze"/><animateTransform attributeName="transform" type="translate" from="612.5 84.0" to="612.5 74.0" begin="0.39s" dur="0.5s" fill="freeze"/><text x="0" y="-6" font-family="Sora, 'Segoe UI', -apple-system, sans-serif" font-size="30" font-weight="700" fill="#9ccfd8" text-anchor="middle">2</text><text x="0" y="20" font-family="Sora, 'Segoe UI', -apple-system, sans-serif" font-size="11.5" fill="#908caa" text-anchor="middle">Repositories</text></g><line x1="490.0" y1="44" x2="490.0" y2="104" stroke="#26233a" stroke-width="1"/><g opacity="0" transform="translate(857.5,74.0)"><animate attributeName="opacity" from="0" to="1" begin="0.51s" dur="0.5s" fill="freeze"/><animateTransform attributeName="transform" type="translate" from="857.5 84.0" to="857.5 74.0" begin="0.51s" dur="0.5s" fill="freeze"/><text x="0" y="-6" font-family="Sora, 'Segoe UI', -apple-system, sans-serif" font-size="30" font-weight="700" fill="#c4a7e7" text-anchor="middle">2024</text><text x="0" y="20" font-family="Sora, 'Segoe UI', -apple-system, sans-serif" font-size="11.5" fill="#908caa" text-anchor="middle">On GitHub since</text></g><line x1="735.0" y1="44" x2="735.0" y2="104" stroke="#26233a" stroke-width="1"/></g></g><text x="16" y="178" font-family="Sora, 'Segoe UI', -apple-system, sans-serif" font-size="13" font-weight="600" fill="#e0def4">assumption</text><g transform="translate(0,184)"><defs><clipPath id="statsClip"><rect x="0" y="0" width="980" height="122" rx="14"/></clipPath></defs><rect x="0" y="0" width="980" height="122" rx="14" fill="#191724" stroke="#26233a" stroke-width="1.5"/><g clip-path="url(#statsClip)"><rect x="0" y="0" width="980" height="26" fill="#1f1d2e"/><circle cx="16" cy="13.0" r="3.5" fill="#9ccfd8"><animate attributeName="opacity" values="1;0.35;1" dur="2s" repeatCount="indefinite"/></circle><text x="26" y="17.0" font-family="Sora, 'Segoe UI', -apple-system, sans-serif" font-size="11" fill="#908caa">git log --stat --author=StazixLS</text><text x="964" y="17.0" font-family="Sora, 'Segoe UI', -apple-system, sans-serif" font-size="10.5" fill="#908caa" text-anchor="end" opacity="0.75">Assumption</text><line x1="0" y1="26" x2="980" y2="26" stroke="#26233a" stroke-width="1"/><rect x="0" y="26" width="980" height="96" fill="#1f1d2e"/><g transform="translate(0,26)" opacity="0.55"><g transform="translate(490.0,58)"><animateTransform attributeName="transform" type="rotate" values="0;360" dur="26s" repeatCount="indefinite" additive="sum"/><path d="M4.8,-16.0 A16,16 0 1,0 4.8,16.0 A12.5,12.5 0 1,1 4.8,-16.0 Z" fill="#faf4ed"/><g transform="translate(0.0,-16.7)" opacity="0.85"><path d="M0.0,-4.4 L-1.1,-1.5 L-4.2,-1.4 L-1.7,0.6 L-2.6,3.6 L-0.0,1.8 L2.6,3.6 L1.7,0.6 L4.2,-1.4 L1.1,-1.5 Z" fill="#f6c177"/><animate attributeName="opacity" values="0.4;0.9;0.4" begin="0.0s" dur="2.4s" repeatCount="indefinite"/></g><g transform="translate(23.8,-10.4)" opacity="0.85"><path d="M0.0,-4.4 L-1.1,-1.5 L-4.2,-1.4 L-1.7,0.6 L-2.6,3.6 L-0.0,1.8 L2.6,3.6 L1.7,0.6 L4.2,-1.4 L1.1,-1.5 Z" fill="#f6c177"/><animate attributeName="opacity" values="0.4;0.9;0.4" begin="0.3s" dur="2.4s" repeatCount="indefinite"/></g><g transform="translate(29.6,3.7)" opacity="0.85"><path d="M0.0,-4.4 L-1.1,-1.5 L-4.2,-1.4 L-1.7,0.6 L-2.6,3.6 L-0.0,1.8 L2.6,3.6 L1.7,0.6 L4.2,-1.4 L1.1,-1.5 Z" fill="#f6c177"/><animate attributeName="opacity" values="0.4;0.9;0.4" begin="0.6s" dur="2.4s" repeatCount="indefinite"/></g><g transform="translate(13.2,15.1)" opacity="0.85"><path d="M0.0,-4.4 L-1.1,-1.5 L-4.2,-1.4 L-1.7,0.6 L-2.6,3.6 L-0.0,1.8 L2.6,3.6 L1.7,0.6 L4.2,-1.4 L1.1,-1.5 Z" fill="#f6c177"/><animate attributeName="opacity" values="0.4;0.9;0.4" begin="0.8999999999999999s" dur="2.4s" repeatCount="indefinite"/></g><g transform="translate(-13.2,15.1)" opacity="0.85"><path d="M0.0,-4.4 L-1.1,-1.5 L-4.2,-1.4 L-1.7,0.6 L-2.6,3.6 L-0.0,1.8 L2.6,3.6 L1.7,0.6 L4.2,-1.4 L1.1,-1.5 Z" fill="#f6c177"/><animate attributeName="opacity" values="0.4;0.9;0.4" begin="1.2s" dur="2.4s" repeatCount="indefinite"/></g><g transform="translate(-29.6,3.7)" opacity="0.85"><path d="M0.0,-4.4 L-1.1,-1.5 L-4.2,-1.4 L-1.7,0.6 L-2.6,3.6 L-0.0,1.8 L2.6,3.6 L1.7,0.6 L4.2,-1.4 L1.1,-1.5 Z" fill="#f6c177"/><animate attributeName="opacity" values="0.4;0.9;0.4" begin="1.5s" dur="2.4s" repeatCount="indefinite"/></g><g transform="translate(-23.8,-10.4)" opacity="0.85"><path d="M0.0,-4.4 L-1.1,-1.5 L-4.2,-1.4 L-1.7,0.6 L-2.6,3.6 L-0.0,1.8 L2.6,3.6 L1.7,0.6 L4.2,-1.4 L1.1,-1.5 Z" fill="#f6c177"/><animate attributeName="opacity" values="0.4;0.9;0.4" begin="1.7999999999999998s" dur="2.4s" repeatCount="indefinite"/></g></g><line x1="465.0" y1="6" x2="461.0" y2="56.0" stroke="#f6c177" stroke-width="2" stroke-linecap="round" opacity="0.5"><animate attributeName="opacity" values="0.25;0.55;0.25" begin="0.0s" dur="3s" repeatCount="indefinite"/></line><line x1="480.0" y1="6" x2="478.4" y2="56.0" stroke="#f6c177" stroke-width="2" stroke-linecap="round" opacity="0.5"><animate attributeName="opacity" values="0.25;0.55;0.25" begin="0.5s" dur="3s" repeatCount="indefinite"/></line><line x1="495.0" y1="6" x2="495.8" y2="56.0" stroke="#f6c177" stroke-width="2" stroke-linecap="round" opacity="0.5"><animate attributeName="opacity" values="0.25;0.55;0.25" begin="1.0s" dur="3s" repeatCount="indefinite"/></line><line x1="510.0" y1="6" x2="513.2" y2="56.0" stroke="#f6c177" stroke-width="2" stroke-linecap="round" opacity="0.5"><animate attributeName="opacity" values="0.25;0.55;0.25" begin="1.5s" dur="3s" repeatCount="indefinite"/></line><g transform="translate(260.2,-8) scale(0.8)" opacity="0.7"><animateTransform attributeName="transform" type="translate" additive="sum" values="0 0;0 106.0" begin="-5.6s" dur="8.8s" repeatCount="indefinite"/><path d="M0.0,-4.4 L-1.1,-1.5 L-4.2,-1.4 L-1.7,0.6 L-2.6,3.6 L-0.0,1.8 L2.6,3.6 L1.7,0.6 L4.2,-1.4 L1.1,-1.5 Z" fill="#f6c177"/></g><g transform="translate(475.7,-8) scale(0.8)" opacity="0.7"><animateTransform attributeName="transform" type="translate" additive="sum" values="0 0;0 106.0" begin="-5.4s" dur="6.9s" repeatCount="indefinite"/><path d="M0.0,-4.4 L-1.1,-1.5 L-4.2,-1.4 L-1.7,0.6 L-2.6,3.6 L-0.0,1.8 L2.6,3.6 L1.7,0.6 L4.2,-1.4 L1.1,-1.5 Z" fill="#f6c177"/></g><g transform="translate(701.2,-8) scale(0.8)" opacity="0.7"><animateTransform attributeName="transform" type="translate" additive="sum" values="0 0;0 106.0" begin="-4.1s" dur="8.0s" repeatCount="indefinite"/><path d="M0.0,-4.4 L-1.1,-1.5 L-4.2,-1.4 L-1.7,0.6 L-2.6,3.6 L-0.0,1.8 L2.6,3.6 L1.7,0.6 L4.2,-1.4 L1.1,-1.5 Z" fill="#f6c177"/></g><g transform="translate(308.9,-8) scale(0.8)" opacity="0.7"><animateTransform attributeName="transform" type="translate" additive="sum" values="0 0;0 106.0" begin="-2.2s" dur="6.0s" repeatCount="indefinite"/><path d="M0.0,-4.4 L-1.1,-1.5 L-4.2,-1.4 L-1.7,0.6 L-2.6,3.6 L-0.0,1.8 L2.6,3.6 L1.7,0.6 L4.2,-1.4 L1.1,-1.5 Z" fill="#f6c177"/></g><g transform="translate(548.6,-8) scale(0.8)" opacity="0.7"><animateTransform attributeName="transform" type="translate" additive="sum" values="0 0;0 106.0" begin="-5.0s" dur="6.3s" repeatCount="indefinite"/><path d="M0.0,-4.4 L-1.1,-1.5 L-4.2,-1.4 L-1.7,0.6 L-2.6,3.6 L-0.0,1.8 L2.6,3.6 L1.7,0.6 L4.2,-1.4 L1.1,-1.5 Z" fill="#f6c177"/></g><g transform="translate(306.3,-8) scale(0.8)" opacity="0.7"><animateTransform attributeName="transform" type="translate" additive="sum" values="0 0;0 106.0" begin="-0.3s" dur="6.9s" repeatCount="indefinite"/><path d="M0.0,-4.4 L-1.1,-1.5 L-4.2,-1.4 L-1.7,0.6 L-2.6,3.6 L-0.0,1.8 L2.6,3.6 L1.7,0.6 L4.2,-1.4 L1.1,-1.5 Z" fill="#f6c177"/></g></g><g opacity="0" transform="translate(122.5,74.0)"><animate attributeName="opacity" from="0" to="1" begin="0.15s" dur="0.5s" fill="freeze"/><animateTransform attributeName="transform" type="translate" from="122.5 84.0" to="122.5 74.0" begin="0.15s" dur="0.5s" fill="freeze"/><text x="0" y="-6" font-family="Sora, 'Segoe UI', -apple-system, sans-serif" font-size="30" font-weight="700" fill="#ea9a97" text-anchor="middle">241</text><text x="0" y="20" font-family="Sora, 'Segoe UI', -apple-system, sans-serif" font-size="11.5" fill="#908caa" text-anchor="middle">Contributions (1y)</text></g><g opacity="0" transform="translate(367.5,74.0)"><animate attributeName="opacity" from="0" to="1" begin="0.27s" dur="0.5s" fill="freeze"/><animateTransform attributeName="transform" type="translate" from="367.5 84.0" to="367.5 74.0" begin="0.27s" dur="0.5s" fill="freeze"/><text x="0" y="-6" font-family="Sora, 'Segoe UI', -apple-system, sans-serif" font-size="30" font-weight="700" fill="#f6c177" text-anchor="middle">8</text><text x="0" y="20" font-family="Sora, 'Segoe UI', -apple-system, sans-serif" font-size="11.5" fill="#908caa" text-anchor="middle">Day streak</text></g><line x1="245.0" y1="44" x2="245.0" y2="104" stroke="#26233a" stroke-width="1"/><g opacity="0" transform="translate(612.5,74.0)"><animate attributeName="opacity" from="0" to="1" begin="0.39s" dur="0.5s" fill="freeze"/><animateTransform attributeName="transform" type="translate" from="612.5 84.0" to="612.5 74.0" begin="0.39s" dur="0.5s" fill="freeze"/><text x="0" y="-6" font-family="Sora, 'Segoe UI', -apple-system, sans-serif" font-size="30" font-weight="700" fill="#9ccfd8" text-anchor="middle">2</text><text x="0" y="20" font-family="Sora, 'Segoe UI', -apple-system, sans-serif" font-size="11.5" fill="#908caa" text-anchor="middle">Repositories</text></g><line x1="490.0" y1="44" x2="490.0" y2="104" stroke="#26233a" stroke-width="1"/><g opacity="0" transform="translate(857.5,74.0)"><animate attributeName="opacity" from="0" to="1" begin="0.51s" dur="0.5s" fill="freeze"/><animateTransform attributeName="transform" type="translate" from="857.5 84.0" to="857.5 74.0" begin="0.51s" dur="0.5s" fill="freeze"/><text x="0" y="-6" font-family="Sora, 'Segoe UI', -apple-system, sans-serif" font-size="30" font-weight="700" fill="#c4a7e7" text-anchor="middle">2024</text><text x="0" y="20" font-family="Sora, 'Segoe UI', -apple-system, sans-serif" font-size="11.5" fill="#908caa" text-anchor="middle">On GitHub since</text></g><line x1="735.0" y1="44" x2="735.0" y2="104" stroke="#26233a" stroke-width="1"/></g></g><text x="16" y="334" font-family="Sora, 'Segoe UI', -apple-system, sans-serif" font-size="13" font-weight="600" fill="#e0def4">toussaint</text><g transform="translate(0,340)"><defs><clipPath id="statsClip"><rect x="0" y="0" width="980" height="122" rx="14"/></clipPath></defs><rect x="0" y="0" width="980" height="122" rx="14" fill="#191724" stroke="#26233a" stroke-width="1.5"/><g clip-path="url(#statsClip)"><rect x="0" y="0" width="980" height="26" fill="#1f1d2e"/><circle cx="16" cy="13.0" r="3.5" fill="#9ccfd8"><animate attributeName="opacity" values="1;0.35;1" dur="2s" repeatCount="indefinite"/></circle><text x="26" y="17.0" font-family="Sora, 'Segoe UI', -apple-system, sans-serif" font-size="11" fill="#908caa">git log --stat --author=StazixLS</text><text x="964" y="17.0" font-family="Sora, 'Segoe UI', -apple-system, sans-serif" font-size="10.5" fill="#908caa" text-anchor="end" opacity="0.75">All Saints' Day</text><line x1="0" y1="26" x2="980" y2="26" stroke="#26233a" stroke-width="1"/><rect x="0" y="26" width="980" height="96" fill="#1f1d2e"/><g transform="translate(0,26)" opacity="0.55"><g transform="translate(147.0,76.0)"><animateTransform attributeName="transform" type="rotate" values="-3;3;-3" begin="0.0s" dur="3.4s" repeatCount="indefinite" additive="sum"/><line x1="0" y1="0" x2="4.2" y2="0.0" stroke="#c9835a" stroke-width="1.2" stroke-linecap="round"/><line x1="0" y1="0" x2="3.6" y2="2.1" stroke="#c9835a" stroke-width="1.2" stroke-linecap="round"/><line x1="0" y1="0" x2="2.1" y2="3.6" stroke="#c9835a" stroke-width="1.2" stroke-linecap="round"/><line x1="0" y1="0" x2="0.0" y2="4.2" stroke="#c9835a" stroke-width="1.2" stroke-linecap="round"/><line x1="0" y1="0" x2="-2.1" y2="3.6" stroke="#c9835a" stroke-width="1.2" stroke-linecap="round"/><line x1="0" y1="0" x2="-3.6" y2="2.1" stroke="#c9835a" stroke-width="1.2" stroke-linecap="round"/><line x1="0" y1="0" x2="-4.2" y2="0.0" stroke="#c9835a" stroke-width="1.2" stroke-linecap="round"/><line x1="0" y1="0" x2="-3.6" y2="-2.1" stroke="#c9835a" stroke-width="1.2" stroke-linecap="round"/><line x1="0" y1="0" x2="-2.1" y2="-3.6" stroke="#c9835a" stroke-width="1.2" stroke-linecap="round"/><line x1="0" y1="0" x2="-0.0" y2="-4.2" stroke="#c9835a" stroke-width="1.2" stroke-linecap="round"/><line x1="0" y1="0" x2="2.1" y2="-3.6" stroke="#c9835a" stroke-width="1.2" stroke-linecap="round"/><line x1="0" y1="0" x2="3.6" y2="-2.1" stroke="#c9835a" stroke-width="1.2" stroke-linecap="round"/><circle cx="0" cy="0" r="1.6" fill="#191724"/></g><g transform="translate(352.8,56.0)"><animateTransform attributeName="transform" type="rotate" values="-3;3;-3" begin="0.5s" dur="3.4s" repeatCount="indefinite" additive="sum"/><line x1="0" y1="0" x2="4.2" y2="0.0" stroke="#b5654a" stroke-width="1.2" stroke-linecap="round"/><line x1="0" y1="0" x2="3.6" y2="2.1" stroke="#b5654a" stroke-width="1.2" stroke-linecap="round"/><line x1="0" y1="0" x2="2.1" y2="3.6" stroke="#b5654a" stroke-width="1.2" stroke-linecap="round"/><line x1="0" y1="0" x2="0.0" y2="4.2" stroke="#b5654a" stroke-width="1.2" stroke-linecap="round"/><line x1="0" y1="0" x2="-2.1" y2="3.6" stroke="#b5654a" stroke-width="1.2" stroke-linecap="round"/><line x1="0" y1="0" x2="-3.6" y2="2.1" stroke="#b5654a" stroke-width="1.2" stroke-linecap="round"/><line x1="0" y1="0" x2="-4.2" y2="0.0" stroke="#b5654a" stroke-width="1.2" stroke-linecap="round"/><line x1="0" y1="0" x2="-3.6" y2="-2.1" stroke="#b5654a" stroke-width="1.2" stroke-linecap="round"/><line x1="0" y1="0" x2="-2.1" y2="-3.6" stroke="#b5654a" stroke-width="1.2" stroke-linecap="round"/><line x1="0" y1="0" x2="-0.0" y2="-4.2" stroke="#b5654a" stroke-width="1.2" stroke-linecap="round"/><line x1="0" y1="0" x2="2.1" y2="-3.6" stroke="#b5654a" stroke-width="1.2" stroke-linecap="round"/><line x1="0" y1="0" x2="3.6" y2="-2.1" stroke="#b5654a" stroke-width="1.2" stroke-linecap="round"/><circle cx="0" cy="0" r="1.6" fill="#191724"/></g><g transform="translate(588.0,80.0)"><animateTransform attributeName="transform" type="rotate" values="-3;3;-3" begin="1.0s" dur="3.4s" repeatCount="indefinite" additive="sum"/><line x1="0" y1="0" x2="4.2" y2="0.0" stroke="#f6c177" stroke-width="1.2" stroke-linecap="round"/><line x1="0" y1="0" x2="3.6" y2="2.1" stroke="#f6c177" stroke-width="1.2" stroke-linecap="round"/><line x1="0" y1="0" x2="2.1" y2="3.6" stroke="#f6c177" stroke-width="1.2" stroke-linecap="round"/><line x1="0" y1="0" x2="0.0" y2="4.2" stroke="#f6c177" stroke-width="1.2" stroke-linecap="round"/><line x1="0" y1="0" x2="-2.1" y2="3.6" stroke="#f6c177" stroke-width="1.2" stroke-linecap="round"/><line x1="0" y1="0" x2="-3.6" y2="2.1" stroke="#f6c177" stroke-width="1.2" stroke-linecap="round"/><line x1="0" y1="0" x2="-4.2" y2="0.0" stroke="#f6c177" stroke-width="1.2" stroke-linecap="round"/><line x1="0" y1="0" x2="-3.6" y2="-2.1" stroke="#f6c177" stroke-width="1.2" stroke-linecap="round"/><line x1="0" y1="0" x2="-2.1" y2="-3.6" stroke="#f6c177" stroke-width="1.2" stroke-linecap="round"/><line x1="0" y1="0" x2="-0.0" y2="-4.2" stroke="#f6c177" stroke-width="1.2" stroke-linecap="round"/><line x1="0" y1="0" x2="2.1" y2="-3.6" stroke="#f6c177" stroke-width="1.2" stroke-linecap="round"/><line x1="0" y1="0" x2="3.6" y2="-2.1" stroke="#f6c177" stroke-width="1.2" stroke-linecap="round"/><circle cx="0" cy="0" r="1.6" fill="#191724"/></g><g transform="translate(803.5999999999999,64.0)"><animateTransform attributeName="transform" type="rotate" values="-3;3;-3" begin="1.5s" dur="3.4s" repeatCount="indefinite" additive="sum"/><line x1="0" y1="0" x2="4.2" y2="0.0" stroke="#908caa" stroke-width="1.2" stroke-linecap="round"/><line x1="0" y1="0" x2="3.6" y2="2.1" stroke="#908caa" stroke-width="1.2" stroke-linecap="round"/><line x1="0" y1="0" x2="2.1" y2="3.6" stroke="#908caa" stroke-width="1.2" stroke-linecap="round"/><line x1="0" y1="0" x2="0.0" y2="4.2" stroke="#908caa" stroke-width="1.2" stroke-linecap="round"/><line x1="0" y1="0" x2="-2.1" y2="3.6" stroke="#908caa" stroke-width="1.2" stroke-linecap="round"/><line x1="0" y1="0" x2="-3.6" y2="2.1" stroke="#908caa" stroke-width="1.2" stroke-linecap="round"/><line x1="0" y1="0" x2="-4.2" y2="0.0" stroke="#908caa" stroke-width="1.2" stroke-linecap="round"/><line x1="0" y1="0" x2="-3.6" y2="-2.1" stroke="#908caa" stroke-width="1.2" stroke-linecap="round"/><line x1="0" y1="0" x2="-2.1" y2="-3.6" stroke="#908caa" stroke-width="1.2" stroke-linecap="round"/><line x1="0" y1="0" x2="-0.0" y2="-4.2" stroke="#908caa" stroke-width="1.2" stroke-linecap="round"/><line x1="0" y1="0" x2="2.1" y2="-3.6" stroke="#908caa" stroke-width="1.2" stroke-linecap="round"/><line x1="0" y1="0" x2="3.6" y2="-2.1" stroke="#908caa" stroke-width="1.2" stroke-linecap="round"/><circle cx="0" cy="0" r="1.6" fill="#191724"/></g><rect x="487.1" y="66.0" width="5.8" height="16" rx="1.5" fill="#efe6d8"/><g transform="translate(490.0,60.4)"><path d="M0,5.6 Q-2.8,1.1199999999999999 0,-5.6 Q2.8,1.1199999999999999 0,5.6 Z" fill="#f6c177"><animate attributeName="d" dur="1.4s" repeatCount="indefinite" values="M0,5.6 Q-2.8,1.1199999999999999 0,-5.6 Q2.8,1.1199999999999999 0,5.6 Z;M0,5.6 Q-1.9599999999999997,0.84 0,-4.76 Q1.9599999999999997,0.84 0,5.6 Z;M0,5.6 Q-2.8,1.1199999999999999 0,-5.6 Q2.8,1.1199999999999999 0,5.6 Z"/></path><circle r="9.0" fill="#f6c177" opacity="0.12"/></g><g transform="translate(465.1,-12) scale(0.80)"><animateTransform attributeName="transform" type="translate" additive="sum" values="0 0;5.6 39.6;-5.6 79.2;0 120.0" keyTimes="0;0.33;0.66;1" begin="-3.21s" dur="9.63s" repeatCount="indefinite"/><g><animateTransform attributeName="transform" type="rotate" from="4" to="220" begin="-3.21s" dur="9.63s" repeatCount="indefinite"/><path d="M0,-10 C2.5,-9 4,-6.5 3.2,-4 C5.5,-3 6,0.5 4,2.5 C5.5,3.5 5,6.5 2.5,7.5 C1.5,6 0.5,6 0,7.5 C-0.5,6 -1.5,6 -2.5,7.5 C-5,6.5 -5.5,3.5 -4,2.5 C-6,0.5 -5.5,-3 -3.2,-4 C-4,-6.5 -2.5,-9 0,-10 Z" fill="#c17a4e"/><path d="M0,-9 Q0.5,0 0.5,7" fill="none" stroke="#00000030" stroke-width="0.5"/><path d="M0,7.5 Q0.5,10 1.5,12" fill="none" stroke="#c17a4e" stroke-width="0.9" stroke-linecap="round"/></g></g><g transform="translate(676.8,-12) scale(1.16)"><animateTransform attributeName="transform" type="translate" additive="sum" values="0 0;5.6 39.6;-5.6 79.2;0 120.0" keyTimes="0;0.33;0.66;1" begin="-4.16s" dur="9.41s" repeatCount="indefinite"/><g><animateTransform attributeName="transform" type="rotate" from="52" to="246" begin="-4.16s" dur="9.41s" repeatCount="indefinite"/><path d="M0,-10 C2.5,-9 4,-6.5 3.2,-4 C5.5,-3 6,0.5 4,2.5 C5.5,3.5 5,6.5 2.5,7.5 C1.5,6 0.5,6 0,7.5 C-0.5,6 -1.5,6 -2.5,7.5 C-5,6.5 -5.5,3.5 -4,2.5 C-6,0.5 -5.5,-3 -3.2,-4 C-4,-6.5 -2.5,-9 0,-10 Z" fill="#a86b3f"/><path d="M0,-9 Q0.5,0 0.5,7" fill="none" stroke="#00000030" stroke-width="0.5"/><path d="M0,7.5 Q0.5,10 1.5,12" fill="none" stroke="#a86b3f" stroke-width="0.9" stroke-linecap="round"/></g></g><g transform="translate(887.9,-12) scale(0.75)"><animateTransform attributeName="transform" type="translate" additive="sum" values="0 0;-5.6 39.6;5.6 79.2;0 120.0" keyTimes="0;0.33;0.66;1" begin="-1.31s" dur="7.24s" repeatCount="indefinite"/><g><animateTransform attributeName="transform" type="rotate" from="247" to="504" begin="-1.31s" dur="7.24s" repeatCount="indefinite"/><path d="M0,-10 C2.5,-9 4,-6.5 3.2,-4 C5.5,-3 6,0.5 4,2.5 C5.5,3.5 5,6.5 2.5,7.5 C1.5,6 0.5,6 0,7.5 C-0.5,6 -1.5,6 -2.5,7.5 C-5,6.5 -5.5,3.5 -4,2.5 C-6,0.5 -5.5,-3 -3.2,-4 C-4,-6.5 -2.5,-9 0,-10 Z" fill="#c17a4e"/><path d="M0,-9 Q0.5,0 0.5,7" fill="none" stroke="#00000030" stroke-width="0.5"/><path d="M0,7.5 Q0.5,10 1.5,12" fill="none" stroke="#c17a4e" stroke-width="0.9" stroke-linecap="round"/></g></g><g transform="translate(18.2,-12) scale(1.06)"><animateTransform attributeName="transform" type="translate" additive="sum" values="0 0;-5.6 39.6;5.6 79.2;0 120.0" keyTimes="0;0.33;0.66;1" begin="-0.62s" dur="7.24s" repeatCount="indefinite"/><g><animateTransform attributeName="transform" type="rotate" from="33" to="342" begin="-0.62s" dur="7.24s" repeatCount="indefinite"/><path d="M0,-10 C2.5,-9 4,-6.5 3.2,-4 C5.5,-3 6,0.5 4,2.5 C5.5,3.5 5,6.5 2.5,7.5 C1.5,6 0.5,6 0,7.5 C-0.5,6 -1.5,6 -2.5,7.5 C-5,6.5 -5.5,3.5 -4,2.5 C-6,0.5 -5.5,-3 -3.2,-4 C-4,-6.5 -2.5,-9 0,-10 Z" fill="#a86b3f"/><path d="M0,-9 Q0.5,0 0.5,7" fill="none" stroke="#00000030" stroke-width="0.5"/><path d="M0,7.5 Q0.5,10 1.5,12" fill="none" stroke="#a86b3f" stroke-width="0.9" stroke-linecap="round"/></g></g><g transform="translate(647.6,-12) scale(1.32)"><animateTransform attributeName="transform" type="translate" additive="sum" values="0 0;-5.6 39.6;5.6 79.2;0 120.0" keyTimes="0;0.33;0.66;1" begin="-5.01s" dur="10.89s" repeatCount="indefinite"/><g><animateTransform attributeName="transform" type="rotate" from="201" to="-30" begin="-5.01s" dur="10.89s" repeatCount="indefinite"/><path d="M0,-10 C2.5,-9 4,-6.5 3.2,-4 C5.5,-3 6,0.5 4,2.5 C5.5,3.5 5,6.5 2.5,7.5 C1.5,6 0.5,6 0,7.5 C-0.5,6 -1.5,6 -2.5,7.5 C-5,6.5 -5.5,3.5 -4,2.5 C-6,0.5 -5.5,-3 -3.2,-4 C-4,-6.5 -2.5,-9 0,-10 Z" fill="#c17a4e"/><path d="M0,-9 Q0.5,0 0.5,7" fill="none" stroke="#00000030" stroke-width="0.5"/><path d="M0,7.5 Q0.5,10 1.5,12" fill="none" stroke="#c17a4e" stroke-width="0.9" stroke-linecap="round"/></g></g><g transform="translate(392.5,-12) scale(1.03)"><animateTransform attributeName="transform" type="translate" additive="sum" values="0 0;-5.6 39.6;5.6 79.2;0 120.0" keyTimes="0;0.33;0.66;1" begin="-3.51s" dur="8.68s" repeatCount="indefinite"/><g><animateTransform attributeName="transform" type="rotate" from="138" to="-110" begin="-3.51s" dur="8.68s" repeatCount="indefinite"/><path d="M0,-10 C2.5,-9 4,-6.5 3.2,-4 C5.5,-3 6,0.5 4,2.5 C5.5,3.5 5,6.5 2.5,7.5 C1.5,6 0.5,6 0,7.5 C-0.5,6 -1.5,6 -2.5,7.5 C-5,6.5 -5.5,3.5 -4,2.5 C-6,0.5 -5.5,-3 -3.2,-4 C-4,-6.5 -2.5,-9 0,-10 Z" fill="#a86b3f"/><path d="M0,-9 Q0.5,0 0.5,7" fill="none" stroke="#00000030" stroke-width="0.5"/><path d="M0,7.5 Q0.5,10 1.5,12" fill="none" stroke="#a86b3f" stroke-width="0.9" stroke-linecap="round"/></g></g><g transform="translate(948.1,-12) scale(0.95)"><animateTransform attributeName="transform" type="translate" additive="sum" values="0 0;-5.6 39.6;5.6 79.2;0 120.0" keyTimes="0;0.33;0.66;1" begin="-3.67s" dur="10.91s" repeatCount="indefinite"/><g><animateTransform attributeName="transform" type="rotate" from="131" to="385" begin="-3.67s" dur="10.91s" repeatCount="indefinite"/><path d="M0,-10 C2.5,-9 4,-6.5 3.2,-4 C5.5,-3 6,0.5 4,2.5 C5.5,3.5 5,6.5 2.5,7.5 C1.5,6 0.5,6 0,7.5 C-0.5,6 -1.5,6 -2.5,7.5 C-5,6.5 -5.5,3.5 -4,2.5 C-6,0.5 -5.5,-3 -3.2,-4 C-4,-6.5 -2.5,-9 0,-10 Z" fill="#c17a4e"/><path d="M0,-9 Q0.5,0 0.5,7" fill="none" stroke="#00000030" stroke-width="0.5"/><path d="M0,7.5 Q0.5,10 1.5,12" fill="none" stroke="#c17a4e" stroke-width="0.9" stroke-linecap="round"/></g></g><g transform="translate(247.3,-12) scale(1.10)"><animateTransform attributeName="transform" type="translate" additive="sum" values="0 0;5.6 39.6;-5.6 79.2;0 120.0" keyTimes="0;0.33;0.66;1" begin="-5.24s" dur="8.34s" repeatCount="indefinite"/><g><animateTransform attributeName="transform" type="rotate" from="275" to="150" begin="-5.24s" dur="8.34s" repeatCount="indefinite"/><path d="M0,-10 C2.5,-9 4,-6.5 3.2,-4 C5.5,-3 6,0.5 4,2.5 C5.5,3.5 5,6.5 2.5,7.5 C1.5,6 0.5,6 0,7.5 C-0.5,6 -1.5,6 -2.5,7.5 C-5,6.5 -5.5,3.5 -4,2.5 C-6,0.5 -5.5,-3 -3.2,-4 C-4,-6.5 -2.5,-9 0,-10 Z" fill="#a86b3f"/><path d="M0,-9 Q0.5,0 0.5,7" fill="none" stroke="#00000030" stroke-width="0.5"/><path d="M0,7.5 Q0.5,10 1.5,12" fill="none" stroke="#a86b3f" stroke-width="0.9" stroke-linecap="round"/></g></g></g><g opacity="0" transform="translate(122.5,74.0)"><animate attributeName="opacity" from="0" to="1" begin="0.15s" dur="0.5s" fill="freeze"/><animateTransform attributeName="transform" type="translate" from="122.5 84.0" to="122.5 74.0" begin="0.15s" dur="0.5s" fill="freeze"/><text x="0" y="-6" font-family="Sora, 'Segoe UI', -apple-system, sans-serif" font-size="30" font-weight="700" fill="#ea9a97" text-anchor="middle">241</text><text x="0" y="20" font-family="Sora, 'Segoe UI', -apple-system, sans-serif" font-size="11.5" fill="#908caa" text-anchor="middle">Contributions (1y)</text></g><g opacity="0" transform="translate(367.5,74.0)"><animate attributeName="opacity" from="0" to="1" begin="0.27s" dur="0.5s" fill="freeze"/><animateTransform attributeName="transform" type="translate" from="367.5 84.0" to="367.5 74.0" begin="0.27s" dur="0.5s" fill="freeze"/><text x="0" y="-6" font-family="Sora, 'Segoe UI', -apple-system, sans-serif" font-size="30" font-weight="700" fill="#f6c177" text-anchor="middle">8</text><text x="0" y="20" font-family="Sora, 'Segoe UI', -apple-system, sans-serif" font-size="11.5" fill="#908caa" text-anchor="middle">Day streak</text></g><line x1="245.0" y1="44" x2="245.0" y2="104" stroke="#26233a" stroke-width="1"/><g opacity="0" transform="translate(612.5,74.0)"><animate attributeName="opacity" from="0" to="1" begin="0.39s" dur="0.5s" fill="freeze"/><animateTransform attributeName="transform" type="translate" from="612.5 84.0" to="612.5 74.0" begin="0.39s" dur="0.5s" fill="freeze"/><text x="0" y="-6" font-family="Sora, 'Segoe UI', -apple-system, sans-serif" font-size="30" font-weight="700" fill="#9ccfd8" text-anchor="middle">2</text><text x="0" y="20" font-family="Sora, 'Segoe UI', -apple-system, sans-serif" font-size="11.5" fill="#908caa" text-anchor="middle">Repositories</text></g><line x1="490.0" y1="44" x2="490.0" y2="104" stroke="#26233a" stroke-width="1"/><g opacity="0" transform="translate(857.5,74.0)"><animate attributeName="opacity" from="0" to="1" begin="0.51s" dur="0.5s" fill="freeze"/><animateTransform attributeName="transform" type="translate" from="857.5 84.0" to="857.5 74.0" begin="0.51s" dur="0.5s" fill="freeze"/><text x="0" y="-6" font-family="Sora, 'Segoe UI', -apple-system, sans-serif" font-size="30" font-weight="700" fill="#c4a7e7" text-anchor="middle">2024</text><text x="0" y="20" font-family="Sora, 'Segoe UI', -apple-system, sans-serif" font-size="11.5" fill="#908caa" text-anchor="middle">On GitHub since</text></g><line x1="735.0" y1="44" x2="735.0" y2="104" stroke="#26233a" stroke-width="1"/></g></g><text x="16" y="490" font-family="Sora, 'Segoe UI', -apple-system, sans-serif" font-size="13" font-weight="600" fill="#e0def4">armistice</text><g transform="translate(0,496)"><defs><clipPath id="statsClip"><rect x="0" y="0" width="980" height="122" rx="14"/></clipPath></defs><rect x="0" y="0" width="980" height="122" rx="14" fill="#191724" stroke="#26233a" stroke-width="1.5"/><g clip-path="url(#statsClip)"><rect x="0" y="0" width="980" height="26" fill="#1f1d2e"/><circle cx="16" cy="13.0" r="3.5" fill="#9ccfd8"><animate attributeName="opacity" values="1;0.35;1" dur="2s" repeatCount="indefinite"/></circle><text x="26" y="17.0" font-family="Sora, 'Segoe UI', -apple-system, sans-serif" font-size="11" fill="#908caa">git log --stat --author=StazixLS</text><text x="964" y="17.0" font-family="Sora, 'Segoe UI', -apple-system, sans-serif" font-size="10.5" fill="#908caa" text-anchor="end" opacity="0.75">Armistice Day</text><line x1="0" y1="26" x2="980" y2="26" stroke="#26233a" stroke-width="1"/><rect x="0" y="26" width="980" height="96" fill="#1f1d2e"/><g transform="translate(0,26)" opacity="0.55"><rect x="487.3" y="48.0" width="5.4" height="34" fill="#908caa"/><rect x="479.1" y="57.5" width="21.8" height="4.8" fill="#908caa"/><g transform="translate(490.0,42)"><path d="M0,9 Q-4.5,1.8 0,-9 Q4.5,1.8 0,9 Z" fill="#f6c177"><animate attributeName="d" dur="1.4s" repeatCount="indefinite" values="M0,9 Q-4.5,1.8 0,-9 Q4.5,1.8 0,9 Z;M0,9 Q-3.15,1.3499999999999999 0,-7.6499999999999995 Q3.15,1.3499999999999999 0,9 Z;M0,9 Q-4.5,1.8 0,-9 Q4.5,1.8 0,9 Z"/></path><circle r="14.4" fill="#ea9a97" opacity="0.12"/></g><g transform="translate(215.6,68)"><animateTransform attributeName="transform" type="rotate" values="-4;4;-4" begin="0.0s" dur="3.2s" repeatCount="indefinite" additive="sum"/><line x1="0" y1="0" x2="4.5" y2="0.0" stroke="#4a6fa5" stroke-width="1.6" stroke-linecap="round"/><line x1="0" y1="0" x2="3.2" y2="3.2" stroke="#4a6fa5" stroke-width="1.6" stroke-linecap="round"/><line x1="0" y1="0" x2="0.0" y2="4.5" stroke="#4a6fa5" stroke-width="1.6" stroke-linecap="round"/><line x1="0" y1="0" x2="-3.2" y2="3.2" stroke="#4a6fa5" stroke-width="1.6" stroke-linecap="round"/><line x1="0" y1="0" x2="-4.5" y2="0.0" stroke="#4a6fa5" stroke-width="1.6" stroke-linecap="round"/><line x1="0" y1="0" x2="-3.2" y2="-3.2" stroke="#4a6fa5" stroke-width="1.6" stroke-linecap="round"/><line x1="0" y1="0" x2="-0.0" y2="-4.5" stroke="#4a6fa5" stroke-width="1.6" stroke-linecap="round"/><line x1="0" y1="0" x2="3.2" y2="-3.2" stroke="#4a6fa5" stroke-width="1.6" stroke-linecap="round"/><circle cx="0" cy="0" r="1.3" fill="#f6c177"/></g><g transform="translate(764.4,68)"><animateTransform attributeName="transform" type="rotate" values="-4;4;-4" begin="0.6s" dur="3.2s" repeatCount="indefinite" additive="sum"/><line x1="0" y1="0" x2="4.5" y2="0.0" stroke="#4a6fa5" stroke-width="1.6" stroke-linecap="round"/><line x1="0" y1="0" x2="3.2" y2="3.2" stroke="#4a6fa5" stroke-width="1.6" stroke-linecap="round"/><line x1="0" y1="0" x2="0.0" y2="4.5" stroke="#4a6fa5" stroke-width="1.6" stroke-linecap="round"/><line x1="0" y1="0" x2="-3.2" y2="3.2" stroke="#4a6fa5" stroke-width="1.6" stroke-linecap="round"/><line x1="0" y1="0" x2="-4.5" y2="0.0" stroke="#4a6fa5" stroke-width="1.6" stroke-linecap="round"/><line x1="0" y1="0" x2="-3.2" y2="-3.2" stroke="#4a6fa5" stroke-width="1.6" stroke-linecap="round"/><line x1="0" y1="0" x2="-0.0" y2="-4.5" stroke="#4a6fa5" stroke-width="1.6" stroke-linecap="round"/><line x1="0" y1="0" x2="3.2" y2="-3.2" stroke="#4a6fa5" stroke-width="1.6" stroke-linecap="round"/><circle cx="0" cy="0" r="1.3" fill="#f6c177"/></g><g transform="translate(372.4,72)" opacity="0.85"><animateTransform attributeName="transform" type="rotate" values="4;-4;4" begin="0.3s" dur="3.2s" repeatCount="indefinite" additive="sum"/><line x1="0" y1="0" x2="4.5" y2="0.0" stroke="#4a6fa5" stroke-width="1.6" stroke-linecap="round"/><line x1="0" y1="0" x2="3.2" y2="3.2" stroke="#4a6fa5" stroke-width="1.6" stroke-linecap="round"/><line x1="0" y1="0" x2="0.0" y2="4.5" stroke="#4a6fa5" stroke-width="1.6" stroke-linecap="round"/><line x1="0" y1="0" x2="-3.2" y2="3.2" stroke="#4a6fa5" stroke-width="1.6" stroke-linecap="round"/><line x1="0" y1="0" x2="-4.5" y2="0.0" stroke="#4a6fa5" stroke-width="1.6" stroke-linecap="round"/><line x1="0" y1="0" x2="-3.2" y2="-3.2" stroke="#4a6fa5" stroke-width="1.6" stroke-linecap="round"/><line x1="0" y1="0" x2="-0.0" y2="-4.5" stroke="#4a6fa5" stroke-width="1.6" stroke-linecap="round"/><line x1="0" y1="0" x2="3.2" y2="-3.2" stroke="#4a6fa5" stroke-width="1.6" stroke-linecap="round"/><circle cx="0" cy="0" r="1.3" fill="#f6c177"/></g><g transform="translate(607.6,72)" opacity="0.85"><animateTransform attributeName="transform" type="rotate" values="4;-4;4" begin="0.8999999999999999s" dur="3.2s" repeatCount="indefinite" additive="sum"/><line x1="0" y1="0" x2="4.5" y2="0.0" stroke="#4a6fa5" stroke-width="1.6" stroke-linecap="round"/><line x1="0" y1="0" x2="3.2" y2="3.2" stroke="#4a6fa5" stroke-width="1.6" stroke-linecap="round"/><line x1="0" y1="0" x2="0.0" y2="4.5" stroke="#4a6fa5" stroke-width="1.6" stroke-linecap="round"/><line x1="0" y1="0" x2="-3.2" y2="3.2" stroke="#4a6fa5" stroke-width="1.6" stroke-linecap="round"/><line x1="0" y1="0" x2="-4.5" y2="0.0" stroke="#4a6fa5" stroke-width="1.6" stroke-linecap="round"/><line x1="0" y1="0" x2="-3.2" y2="-3.2" stroke="#4a6fa5" stroke-width="1.6" stroke-linecap="round"/><line x1="0" y1="0" x2="-0.0" y2="-4.5" stroke="#4a6fa5" stroke-width="1.6" stroke-linecap="round"/><line x1="0" y1="0" x2="3.2" y2="-3.2" stroke="#4a6fa5" stroke-width="1.6" stroke-linecap="round"/><circle cx="0" cy="0" r="1.3" fill="#f6c177"/></g></g><g opacity="0" transform="translate(122.5,74.0)"><animate attributeName="opacity" from="0" to="1" begin="0.15s" dur="0.5s" fill="freeze"/><animateTransform attributeName="transform" type="translate" from="122.5 84.0" to="122.5 74.0" begin="0.15s" dur="0.5s" fill="freeze"/><text x="0" y="-6" font-family="Sora, 'Segoe UI', -apple-system, sans-serif" font-size="30" font-weight="700" fill="#ea9a97" text-anchor="middle">241</text><text x="0" y="20" font-family="Sora, 'Segoe UI', -apple-system, sans-serif" font-size="11.5" fill="#908caa" text-anchor="middle">Contributions (1y)</text></g><g opacity="0" transform="translate(367.5,74.0)"><animate attributeName="opacity" from="0" to="1" begin="0.27s" dur="0.5s" fill="freeze"/><animateTransform attributeName="transform" type="translate" from="367.5 84.0" to="367.5 74.0" begin="0.27s" dur="0.5s" fill="freeze"/><text x="0" y="-6" font-family="Sora, 'Segoe UI', -apple-system, sans-serif" font-size="30" font-weight="700" fill="#f6c177" text-anchor="middle">8</text><text x="0" y="20" font-family="Sora, 'Segoe UI', -apple-system, sans-serif" font-size="11.5" fill="#908caa" text-anchor="middle">Day streak</text></g><line x1="245.0" y1="44" x2="245.0" y2="104" stroke="#26233a" stroke-width="1"/><g opacity="0" transform="translate(612.5,74.0)"><animate attributeName="opacity" from="0" to="1" begin="0.39s" dur="0.5s" fill="freeze"/><animateTransform attributeName="transform" type="translate" from="612.5 84.0" to="612.5 74.0" begin="0.39s" dur="0.5s" fill="freeze"/><text x="0" y="-6" font-family="Sora, 'Segoe UI', -apple-system, sans-serif" font-size="30" font-weight="700" fill="#9ccfd8" text-anchor="middle">2</text><text x="0" y="20" font-family="Sora, 'Segoe UI', -apple-system, sans-serif" font-size="11.5" fill="#908caa" text-anchor="middle">Repositories</text></g><line x1="490.0" y1="44" x2="490.0" y2="104" stroke="#26233a" stroke-width="1"/><g opacity="0" transform="translate(857.5,74.0)"><animate attributeName="opacity" from="0" to="1" begin="0.51s" dur="0.5s" fill="freeze"/><animateTransform attributeName="transform" type="translate" from="857.5 84.0" to="857.5 74.0" begin="0.51s" dur="0.5s" fill="freeze"/><text x="0" y="-6" font-family="Sora, 'Segoe UI', -apple-system, sans-serif" font-size="30" font-weight="700" fill="#c4a7e7" text-anchor="middle">2024</text><text x="0" y="20" font-family="Sora, 'Segoe UI', -apple-system, sans-serif" font-size="11.5" fill="#908caa" text-anchor="middle">On GitHub since</text></g><line x1="735.0" y1="44" x2="735.0" y2="104" stroke="#26233a" stroke-width="1"/></g></g></svg>