<svg viewBox="0 0 980 634" width="980" height="634" xmlns="http://www.w3.org/2000/svg"><rect width="980" height="634" fill="#191724"/><text x="16" y="22" font-family="Sora, 'Segoe UI', -apple-system, sans-serif" font-size="13" font-weight="600" fill="#e0def4">epiphany</text><g transform="translate(0,28)"><defs><clipPath id="statsClip"><rect x="0" y="0" width="980" height="122" rx="14"/></clipPath></defs><rect x="0" y="0" width="980" height="122" rx="14" fill="#191724" stroke="#26233a" stroke-width="1.5"/><g clip-path="url(#statsClip)"><rect x="0" y="0" width="980" height="26" fill="#1f1d2e"/><circle cx="16" cy="13.0" r="3.5" fill="#9ccfd8"><animate attributeName="opacity" values="1;0.35;1" dur="2s" repeatCount="indefinite"/></circle><text x="26" y="17.0" font-family="Sora, 'Segoe UI', -apple-system, sans-serif" font-size="11" fill="#908caa">git log --stat --author=StazixLS</text><text x="964" y="17.0" font-family="Sora, 'Segoe UI', -apple-system, sans-serif" font-size="10.5" fill="#908caa" text-anchor="end" opacity="0.75">Epiphanie</text><line x1="0" y1="26" x2="980" y2="26" stroke="#26233a" stroke-width="1"/><rect x="0" y="26" width="980" height="96" fill="#1f1d2e"/><g transform="translate(0,26)" opacity="0.55"><circle cx="490.0" cy="76" r="30" fill="#e8b95c"/><line x1="490.0" y1="76" x2="515.5" y2="76.0" stroke="#c98a2e" stroke-width="1" opacity="0.5"/><line x1="490.0" y1="76" x2="502.8" y2="98.1" stroke="#c98a2e" stroke-width="1" opacity="0.5"/><line x1="490.0" y1="76" x2="477.2" y2="98.1" stroke="#c98a2e" stroke-width="1" opacity="0.5"/><line x1="490.0" y1="76" x2="464.5" y2="76.0" stroke="#c98a2e" stroke-width="1" opacity="0.5"/><line x1="490.0" y1="76" x2="477.2" y2="53.9" stroke="#c98a2e" stroke-width="1" opacity="0.5"/><line x1="490.0" y1="76" x2="502.8" y2="53.9" stroke="#c98a2e" stroke-width="1" opacity="0.5"/><circle cx="490.0" cy="76" r="27.0" fill="none" stroke="#c98a2e" stroke-width="1.4" opacity="0.7"/><path d="M474.4,45.8 L474.4,35.4 L482.2,41.9 L486.9,28.9 L490.0,39.3 L493.1,28.9 L497.8,41.9 L505.6,35.4 L505.6,45.8 Z" fill="#f6c177"/><circle cx="482.2" cy="41.9" r="2.1" fill="#ea9a97"/><circle cx="490.0" cy="41.9" r="2.1" fill="#ea9a97"/><circle cx="497.8" cy="41.9" r="2.1" fill="#ea9a97"/></g><g opacity="0" transform="translate(122.5,74.0)"><animate attributeName="opacity" from="0" to="1" begin="0.15s" dur="0.5s" fill="freeze"/><animateTransform attributeName="transform" type="translate" from="122.5 84.0" to="122.5 74.0" begin="0.15s" dur="0.5s" fill="freeze"/><text x="0" y="-6" font-family="Sora, 'Segoe UI', -apple-system, sans-serif" font-size="30" font-weight="700" fill="#ea9a97" text-anchor="middle">241</text><text x="0" y="20" font-family="Sora, 'Segoe UI', -apple-system, sans-serif" font-size="11.5" fill="#908caa" text-anchor="middle">Contributions (1y)</text></g><g opacity="0" transform="translate(367.5,74.0)"><animate attributeName="opacity" from="0" to="1" begin="0.27s" dur="0.5s" fill="freeze"/><animateTransform attributeName="transform" type="translate" from="367.5 84.0" to="367.5 74.0" begin="0.27s" dur="0.5s" fill="freeze"/><text x="0" y="-6" font-family="Sora, 'Segoe UI', -apple-system, sans-serif" font-size="30" font-weight="700" fill="#f6c177" text-anchor="middle">8</text><text x="0" y="20" font-family="Sora, 'Segoe UI', -apple-system, sans-serif" font-size="11.5" fill="#908caa" text-anchor="middle">Day streak</text></g><line x1="245.0" y1="44" x2="245.0" y2="104" stroke="#26233a" stroke-width="1"/><g opacity="0" transform="translate(612.5,74.0)"><animate attributeName="opacity" from="0" to="1" begin="0.39s" dur="0.5s" fill="freeze"/><animateTransform attributeName="transform" type="translate" from="612.5 84.0" to="612.5 74.0" begin="0.39s" dur="0.5s" fill="freeze"/><text x="0" y="-6" font-family="Sora, 'Segoe UI', -apple-system, sans-serif" font-size="30" font-weight="700" fill="#9ccfd8" text-anchor="middle">2</text><text x="0" y="20" font-family="Sora, 'Segoe UI', -apple-system, sans-serif" font-size="11.5" fill="#908caa" text-anchor="middle">Repositories</text></g><line x1="490.0" y1="44" x2="490.0" y2="104" stroke="#26233a" stroke-width="1"/><g opacity="0" transform="translate(857.5,74.0)"><animate attributeName="opacity" from="0" to="1" begin="0.51s" dur="0.5s" fill="freeze"/><animateTransform attributeName="transform" type="translate" from="857.5 84.0" to="857.5 74.0" begin="0.51s" dur="0.5s" fill="freeze"/><text x="0" y="-6" font-family="Sora, 'Segoe UI', -apple-system, sans-serif" font-size="30" font-weight="700" fill="#c4a7e7" text-anchor="middle">2024</text><text x="0" y="20" font-family="Sora, 'Segoe UI', -apple-system, sans-serif" font-size="11.5" fill="#908caa" text-anchor="middle">On GitHub since</text></g><line x1="735.0" y1="44" x2="735.0" y2="104" stroke="#26233a" stroke-width="1"/></g></g><text x="16" y="178" font-family="Sora, 'Segoe UI', -apple-system, sans-serif" font-size="13" font-weight="600" fill="#e0def4">candlemas</text><g transform="translate(0,184)"><defs><clipPath id="statsClip"><rect x="0" y="0" width="980" height="122" rx="14"/></clipPath></defs><rect x="0" y="0" width="980" height="122" rx="14" fill="#191724" stroke="#26233a" stroke-width="1.5"/><g clip-path="url(#statsClip)"><rect x="0" y="0" width="980" height="26" fill="#1f1d2e"/><circle cx="16" cy="13.0" r="3.5" fill="#9ccfd8"><animate attributeName="opacity" values="1;0.35;1" dur="2s" repeatCount="indefinite"/></circle><text x="26" y="17.0" font-family="Sora, 'Segoe UI', -apple-system, sans-serif" font-size="11" fill="#908caa">git log --stat --author=StazixLS</text><text x="964" y="17.0" font-family="Sora, 'Segoe UI', -apple-system, sans-serif" font-size="10.5" fill="#908caa" text-anchor="end" opacity="0.75">Chandeleur</text><line x1="0" y1="26" x2="980" y2="26" stroke="#26233a" stroke-width="1"/><rect x="0" y="26" width="980" height="96" fill="#1f1d2e"/><g transform="translate(0,26)" opacity="0.55"><ellipse cx="490.0" cy="75.2" rx="32" ry="10.2" fill="#4a4550"/><g transform="translate(490.0,67.2)"><animateTransform attributeName="transform" type="rotate" values="0;360" begin="0s" dur="2.6s" repeatCount="indefinite" additive="sum"/><ellipse cx="0" cy="0" rx="26.2" ry="8.3" fill="#f3d9a0"/></g><rect x="518.8" y="72.6" width="22.4" height="5.1" rx="3" fill="#4a4550"/></g><g opacity="0" transform="translate(122.5,74.0)"><animate attributeName="opacity" from="0" to="1" begin="0.15s" dur="0.5s" fill="freeze"/><animateTransform attributeName="transform" type="translate" from="122.5 84.0" to="122.5 74.0" begin="0.15s" dur="0.5s" fill="freeze"/><text x="0" y="-6" font-family="Sora, 'Segoe UI', -apple-system, sans-serif" font-size="30" font-weight="700" fill="#ea9a97" text-anchor="middle">241</text><text x="0" y="20" font-family="Sora, 'Segoe UI', -apple-system, sans-serif" font-size="11.5" fill="#908caa" text-anchor="middle">Contributions (1y)</text></g><g opacity="0" transform="translate(367.5,74.0)"><animate attributeName="opacity" from="0" to="1" begin="0.27s" dur="0.5s" fill="freeze"/><animateTransform attributeName="transform" type="translate" from="367.5 84.0" to="367.5 74.0" begin="0.27s" dur="0.5s" fill="freeze"/><text x="0" y="-6" font-family="Sora, 'Segoe UI', -apple-system, sans-serif" font-size="30" font-weight="700" fill="#f6c177" text-anchor="middle">8</text><text x="0" y="20" font-family="Sora, 'Segoe UI', -apple-system, sans-serif" font-size="11.5" fill="#908caa" text-anchor="middle">Day streak</text></g><line x1="245.0" y1="44" x2="245.0" y2="104" stroke="#26233a" stroke-width="1"/><g opacity="0" transform="translate(612.5,74.0)"><animate attributeName="opacity" from="0" to="1" begin="0.39s" dur="0.5s" fill="freeze"/><animateTransform attributeName="transform" type="translate" from="612.5 84.0" to="612.5 74.0" begin="0.39s" dur="0.5s" fill="freeze"/><text x="0" y="-6" font-family="Sora, 'Segoe UI', -apple-system, sans-serif" font-size="30" font-weight="700" fill="#9ccfd8" text-anchor="middle">2</text><text x="0" y="20" font-family="Sora, 'Segoe UI', -apple-system, sans-serif" font-size="11.5" fill="#908caa" text-anchor="middle">Repositories</text></g><line x1="490.0" y1="44" x2="490.0" y2="104" stroke="#26233a" stroke-width="1"/><g opacity="0" transform="translate(857.5,74.0)"><animate attributeName="opacity" from="0" to="1" begin="0.51s" dur="0.5s" fill="freeze"/><animateTransform attributeName="transform" type="translate" from="857.5 84.0" to="857.5 74.0" begin="0.51s" dur="0.5s" fill="freeze"/><text x="0" y="-6" font-family="Sora, 'Segoe UI', -apple-system, sans-serif" font-size="30" font-weight="700" fill="#c4a7e7" text-anchor="middle">2024</text><text x="0" y="20" font-family="Sora, 'Segoe UI', -apple-system, sans-serif" font-size="11.5" fill="#908caa" text-anchor="middle">On GitHub since</text></g><line x1="735.0" y1="44" x2="735.0" y2="104" stroke="#26233a" stroke-width="1"/></g></g><text x="16" y="334" font-family="Sora, 'Segoe UI', -apple-system, sans-serif" font-size="13" font-weight="600" fill="#e0def4">mardi_gras</text><g transform="translate(0,340)"><defs><clipPath id="statsClip"><rect x="0" y="0" width="980" height="122" rx="14"/></clipPath></defs><rect x="0" y="0" width="980" height="122" rx="14" fill="#191724" stroke="#26233a" stroke-width="1.5"/><g clip-path="url(#statsClip)"><rect x="0" y="0" width="980" height="26" fill="#1f1d2e"/><circle cx="16" cy="13.0" r="3.5" fill="#9ccfd8"><animate attributeName="opacity" values="1;0.35;1" dur="2s" repeatCount="indefinite"/></circle><text x="26" y="17.0" font-family="Sora, 'Segoe UI', -apple-system, sans-serif" font-size="11" fill="#908caa">git log --stat --author=StazixLS</text><text x="964" y="17.0" font-family="Sora, 'Segoe UI', -apple-system, sans-serif" font-size="10.5" fill="#908caa" text-anchor="end" opacity="0.75">Mardi Gras</text><line x1="0" y1="26" x2="980" y2="26" stroke="#26233a" stroke-width="1"/><rect x="0" y="26" width="980" height="96" fill="#1f1d2e"/><g transform="translate(0,26)" opacity="0.55"><rect x="-2" y="-2" width="4" height="4" fill="#ea9a97" transform="translate(610.4,-10)"><animateTransform attributeName="transform" type="translate" additive="sum" values="0 0;0 116.0" begin="-1.27s" dur="6.23s" repeatCount="indefinite"/></rect><g transform="translate(610.4,-10)"><animateTransform attributeName="transform" type="translate" additive="sum" values="0 0;0 116.0" begin="-1.27s" dur="6.23s" repeatCount="indefinite"/><rect x="-2" y="-2" width="4" height="4" fill="#ea9a97"><animateTransform attributeName="transform" type="rotate" from="339" to="761" begin="-1.27s" dur="6.23s" repeatCount="indefinite"/></rect></g><rect x="-2" y="-2" width="4" height="4" fill="#c4a7e7" transform="translate(903.9,-10)"><animateTransform attributeName="transform" type="translate" additive="sum" values="0 0;0 116.0" begin="-2.18s" dur="4.09s" repeatCount="indefinite"/></rect><g transform="translate(903.9,-10)"><animateTransform attributeName="transform" type="translate" additive="sum" values="0 0;0 116.0" begin="-2.18s" dur="4.09s" repeatCount="indefinite"/><rect x="-2" y="-2" width="4" height="4" fill="#c4a7e7"><animateTransform attributeName="transform" type="rotate" from="340" to="734" begin="-2.18s" dur="4.09s" repeatCount="indefinite"/></rect></g><rect x="-2" y="-2" width="4" height="4" fill="#f6c177" transform="translate(882.9,-10)"><animateTransform attributeName="transform" type="translate" additive="sum" values="0 0;0 116.0" begin="-2.30s" dur="4.34s" repeatCount="indefinite"/></rect><g transform="translate(882.9,-10)"><animateTransform attributeName="transform" type="translate" additive="sum" values="0 0;0 116.0" begin="-2.30s" dur="4.34s" repeatCount="indefinite"/><rect x="-2" y="-2" width="4" height="4" fill="#f6c177"><animateTransform attributeName="transform" type="rotate" from="89" to="452" begin="-2.30s" dur="4.34s" repeatCount="indefinite"/></rect></g><rect x="-2" y="-2" width="4" height="4" fill="#9ccfd8" transform="translate(562.5,-10)"><animateTransform attributeName="transform" type="translate" additive="sum" values="0 0;0 116.0" begin="-3.16s" dur="4.04s" repeatCount="indefinite"/></rect><g transform="translate(562.5,-10)"><animateTransform attributeName="transform" type="translate" additive="sum" values="0 0;0 116.0" begin="-3.16s" dur="4.04s" repeatCount="indefinite"/><rect x="-2" y="-2" width="4" height="4" fill="#9ccfd8"><animateTransform attributeName="transform" type="rotate" from="101" to="576" begin="-3.16s" dur="4.04s" repeatCount="indefinite"/></rect></g><rect x="-2" y="-2" width="4" height="4" fill="#ea9a97" transform="translate(750.4,-10)"><animateTransform attributeName="transform" type="translate" additive="sum" values="0 0;0 116.0" begin="-0.91s" dur="4.48s" repeatCount="indefinite"/></rect><g transform="translate(750.4,-10)"><animateTransform attributeName="transform" type="translate" additive="sum" values="0 0;0 116.0" begin="-0.91s" dur="4.48s" repeatCount="indefinite"/><rect x="-2" y="-2" width="4" height="4" fill="#ea9a97"><animateTransform attributeName="transform" type="rotate" from="50" to="435" begin="-0.91s" dur="4.48s" repeatCount="indefinite"/></rect></g><rect x="-2" y="-2" width="4" height="4" fill="#c4a7e7" transform="translate(124.2,-10)"><animateTransform attributeName="transform" type="translate" additive="sum" values="0 0;0 116.0" begin="-0.52s" dur="4.01s" repeatCount="indefinite"/></rect><g transform="translate(124.2,-10)"><animateTransform attributeName="transform" type="translate" additive="sum" values="0 0;0 116.0" begin="-0.52s" dur="4.01s" repeatCount="indefinite"/><rect x="-2" y="-2" width="4" height="4" fill="#c4a7e7"><animateTransform attributeName="transform" type="rotate" from="75" to="340" begin="-0.52s" dur="4.01s" repeatCount="indefinite"/></rect></g><rect x="-2" y="-2" width="4" height="4" fill="#f6c177" transform="translate(962.8,-10)"><animateTransform attributeName="transform" type="translate" additive="sum" values="0 0;0 116.0" begin="-4.70s" dur="6.62s" repeatCount="indefinite"/></rect><g transform="translate(962.8,-10)"><animateTransform attributeName="transform" type="translate" additive="sum" values="0 0;0 116.0" begin="-4.70s" dur="6.62s" repeatCount="indefinite"/><rect x="-2" y="-2" width="4" height="4" fill="#f6c177"><animateTransform attributeName="transform" type="rotate" from="346" to="708" begin="-4.70s" dur="6.62s" repeatCount="indefinite"/></rect></g><rect x="-2" y="-2" width="4" height="4" fill="#9ccfd8" transform="translate(664.3,-10)"><animateTransform attributeName="transform" type="translate" additive="sum" values="0 0;0 116.0" begin="-0.27s" dur="4.61s" repeatCount="indefinite"/></rect><g transform="translate(664.3,-10)"><animateTransform attributeName="transform" type="translate" additive="sum" values="0 0;0 116.0" begin="-0.27s" dur="4.61s" repeatCount="indefinite"/><rect x="-2" y="-2" width="4" height="4" fill="#9ccfd8"><animateTransform attributeName="transform" type="rotate" from="249" to="739" begin="-0.27s" dur="4.61s" repeatCount="indefinite"/></rect></g><rect x="-2" y="-2" width="4" height="4" fill="#ea9a97" transform="translate(875.9,-10)"><animateTransform attributeName="transform" type="translate" additive="sum" values="0 0;0 116.0" begin="-3.13s" dur="4.90s" repeatCount="indefinite"/></rect><g transform="translate(875.9,-10)"><animateTransform attributeName="transform" type="translate" additive="sum" values="0 0;0 116.0" begin="-3.13s" dur="4.90s" repeatCount="indefinite"/><rect x="-2" y="-2" width="4" height="4" fill="#ea9a97"><animateTransform attributeName="transform" type="rotate" from="60" to="303" begin="-3.13s" dur="4.90s" repeatCount="indefinite"/></rect></g><rect x="-2" y="-2" width="4" height="4" fill="#c4a7e7" transform="translate(63.8,-10)"><animateTransform attributeName="transform" type="translate" additive="sum" values="0 0;0 116.0" begin="-1.95s" dur="4.90s" repeatCount="indefinite"/></rect><g transform="translate(63.8,-10)"><animateTransform attributeName="transform" type="translate" additive="sum" values="0 0;0 116.0" begin="-1.95s" dur="4.90s" repeatCount="indefinite"/><rect x="-2" y="-2" width="4" height="4" fill="#c4a7e7"><animateTransform attributeName="transform" type="rotate" from="1" to="405" begin="-1.95s" dur="4.90s" repeatCount="indefinite"/></rect></g><rect x="-2" y="-2" width="4" height="4" fill="#f6c177" transform="translate(331.1,-10)"><animateTransform attributeName="transform" type="translate" additive="sum" values="0 0;0 116.0" begin="-0.89s" dur="4.93s" repeatCount="indefinite"/></rect><g transform="translate(331.1,-10)"><animateTransform attributeName="transform" type="translate" additive="sum" values="0 0;0 116.0" begin="-0.89s" dur="4.93s" repeatCount="indefinite"/><rect x="-2" y="-2" width="4" height="4" fill="#f6c177"><animateTransform attributeName="transform" type="rotate" from="173" to="468" begin="-0.89s" dur="4.93s" repeatCount="indefinite"/></rect></g><rect x="-2" y="-2" width="4" height="4" fill="#9ccfd8" transform="translate(471.6,-10)"><animateTransform attributeName="transform" type="translate" additive="sum" values="0 0;0 116.0" begin="-5.77s" dur="6.11s" repeatCount="indefinite"/></rect><g transform="translate(471.6,-10)"><animateTransform attributeName="transform" type="translate" additive="sum" values="0 0;0 116.0" begin="-5.77s" dur="6.11s" repeatCount="indefinite"/><rect x="-2" y="-2" width="4" height="4" fill="#9ccfd8"><animateTransform attributeName="transform" type="rotate" from="351" to="558" begin="-5.77s" dur="6.11s" repeatCount="indefinite"/></rect></g><rect x="-2" y="-2" width="4" height="4" fill="#ea9a97" transform="translate(734.8,-10)"><animateTransform attributeName="transform" type="translate" additive="sum" values="0 0;0 116.0" begin="-6.42s" dur="6.53s" repeatCount="indefinite"/></rect><g transform="translate(734.8,-10)"><animateTransform attributeName="transform" type="translate" additive="sum" values="0 0;0 116.0" begin="-6.42s" dur="6.53s" repeatCount="indefinite"/><rect x="-2" y="-2" width="4" height="4" fill="#ea9a97"><animateTransform attributeName="transform" type="rotate" from="284" to="593" begin="-6.42s" dur="6.53s" repeatCount="indefinite"/></rect></g><rect x="-2" y="-2" width="4" height="4" fill="#c4a7e7" transform="translate(566.9,-10)"><animateTransform attributeName="transform" type="translate" additive="sum" values="0 0;0 116.0" begin="-3.84s" dur="4.03s" repeatCount="indefinite"/></rect><g transform="translate(566.9,-10)"><animateTransform attributeName="transform" type="translate" additive="sum" values="0 0;0 116.0" begin="-3.84s" dur="4.03s" repeatCount="indefinite"/><rect x="-2" y="-2" width="4" height="4" fill="#c4a7e7"><animateTransform attributeName="transform" type="rotate" from="65" to="552" begin="-3.84s" dur="4.03s" repeatCount="indefinite"/></rect></g><rect x="-2" y="-2" width="4" height="4" fill="#f6c177" transform="translate(192.6,-10)"><animateTransform attributeName="transform" type="translate" additive="sum" values="0 0;0 116.0" begin="-0.44s" dur="6.27s" repeatCount="indefinite"/></rect><g transform="translate(192.6,-10)"><animateTransform attributeName="transform" type="translate" additive="sum" values="0 0;0 116.0" begin="-0.44s" dur="6.27s" repeatCount="indefinite"/><rect x="-2" y="-2" width="4" height="4" fill="#f6c177"><animateTransform attributeName="transform" type="rotate" from="339" to="642" begin="-0.44s" dur="6.27s" repeatCount="indefinite"/></rect></g><rect x="-2" y="-2" width="4" height="4" fill="#9ccfd8" transform="translate(347.7,-10)"><animateTransform attributeName="transform" type="translate" additive="sum" values="0 0;0 116.0" begin="-1.25s" dur="5.57s" repeatCount="indefinite"/></rect><g transform="translate(347.7,-10)"><animateTransform attributeName="transform" type="translate" additive="sum" values="0 0;0 116.0" begin="-1.25s" dur="5.57s" repeatCount="indefinite"/><rect x="-2" y="-2" width="4" height="4" fill="#9ccfd8"><animateTransform attributeName="transform" type="rotate" from="39" to="463" begin="-1.25s" dur="5.57s" repeatCount="indefinite"/></rect></g><rect x="-2" y="-2" width="4" height="4" fill="#ea9a97" transform="translate(781.3,-10)"><animateTransform attributeName="transform" type="translate" additive="sum" values="0 0;0 116.0" begin="-6.34s" dur="6.58s" repeatCount="indefinite"/></rect><g transform="translate(781.3,-10)"><animateTransform attributeName="transform" type="translate" additive="sum" values="0 0;0 116.0" begin="-6.34s" dur="6.58s" repeatCount="indefinite"/><rect x="-2" y="-2" width="4" height="4" fill="#ea9a97"><animateTransform attributeName="transform" type="rotate" from="340" to="568" begin="-6.34s" dur="6.58s" repeatCount="indefinite"/></rect></g><rect x="-2" y="-2" width="4" height="4" fill="#c4a7e7" transform="translate(333.9,-10)"><animateTransform attributeName="transform" type="translate" additive="sum" values="0 0;0 116.0" begin="-0.48s" dur="5.83s" repeatCount="indefinite"/></rect><g transform="translate(333.9,-10)"><animateTransform attributeName="transform" type="translate" additive="sum" values="0 0;0 116.0" begin="-0.48s" dur="5.83s" repeatCount="indefinite"/><rect x="-2" y="-2" width="4" height="4" fill="#c4a7e7"><animateTransform attributeName="transform" type="rotate" from="122" to="600" begin="-0.48s" dur="5.83s" repeatCount="indefinite"/></rect></g><rect x="-2" y="-2" width="4" height="4" fill="#f6c177" transform="translate(534.2,-10)"><animateTransform attributeName="transform" type="translate" additive="sum" values="0 0;0 116.0" begin="-3.37s" dur="4.94s" repeatCount="indefinite"/></rect><g transform="translate(534.2,-10)"><animateTransform attributeName="transform" type="translate" additive="sum" values="0 0;0 116.0" begin="-3.37s" dur="4.94s" repeatCount="indefinite"/><rect x="-2" y="-2" width="4" height="4" fill="#f6c177"><animateTransform attributeName="transform" type="rotate" from="64" to="287" begin="-3.37s" dur="4.94s" repeatCount="indefinite"/></rect></g><rect x="-2" y="-2" width="4" height="4" fill="#9ccfd8" transform="translate(145.9,-10)"><animateTransform attributeName="transform" type="translate" additive="sum" values="0 0;0 116.0" begin="-0.02s" dur="6.07s" repeatCount="indefinite"/></rect><g transform="translate(145.9,-10)"><animateTransform attributeName="transform" type="translate" additive="sum" values="0 0;0 116.0" begin="-0.02s" dur="6.07s" repeatCount="indefinite"/><rect x="-2" y="-2" width="4" height="4" fill="#9ccfd8"><animateTransform attributeName="transform" type="rotate" from="58" to="273" begin="-0.02s" dur="6.07s" repeatCount="indefinite"/></rect></g><rect x="-2" y="-2" width="4" height="4" fill="#ea9a97" transform="translate(967.0,-10)"><animateTransform attributeName="transform" type="translate" additive="sum" values="0 0;0 116.0" begin="-3.33s" dur="5.60s" repeatCount="indefinite"/></rect><g transform="translate(967.0,-10)"><animateTransform attributeName="transform" type="translate" additive="sum" values="0 0;0 116.0" begin="-3.33s" dur="5.60s" repeatCount="indefinite"/><rect x="-2" y="-2" width="4" height="4" fill="#ea9a97"><animateTransform attributeName="transform" type="rotate" from="85" to="464" begin="-3.33s" dur="5.60s" repeatCount="indefinite"/></rect></g><rect x="-2" y="-2" width="4" height="4" fill="#c4a7e7" transform="translate(809.8,-10)"><animateTransform attributeName="transform" type="translate" additive="sum" values="0 0;0 116.0" begin="-3.10s" dur="5.37s" repeatCount="indefinite"/></rect><g transform="translate(809.8,-10)"><animateTransform attributeName="transform" type="translate" additive="sum" values="0 0;0 116.0" begin="-3.10s" dur="5.37s" repeatCount="indefinite"/><rect x="-2" y="-2" width="4" height="4" fill="#c4a7e7"><animateTransform attributeName="transform" type="rotate" from="20" to="495" begin="-3.10s" dur="5.37s" repeatCount="indefinite"/></rect></g><path d="M272.0,62.0 Q272.0,46.6 289.6,51.0 Q294.0,47.7 298.4,51.0 Q316.0,46.6 316.0,62.0 Q316.0,73.0 294.0,70.8 Q272.0,73.0 272.0,62.0 Z" fill="#c4a7e7"/><ellipse cx="285.2" cy="60.9" rx="4.0" ry="2.6" fill="none" stroke="#f6c177" stroke-width="1"/><ellipse cx="302.8" cy="60.9" rx="4.0" ry="2.6" fill="none" stroke="#f6c177" stroke-width="1"/><path d="M290.7,49.9 q6.6,-7.7 11.0,-2.2" fill="none" stroke="#f6c177" stroke-width="1.2"/><path d="M648.4,64.0 Q648.4,51.4 662.8,55.0 Q666.4,52.3 670.0,55.0 Q684.4,51.4 684.4,64.0 Q684.4,73.0 666.4,71.2 Q648.4,73.0 648.4,64.0 Z" fill="#ea9a97"/><ellipse cx="659.2" cy="63.1" rx="3.2" ry="2.2" fill="none" stroke="#f6c177" stroke-width="1"/><ellipse cx="673.6" cy="63.1" rx="3.2" ry="2.2" fill="none" stroke="#f6c177" stroke-width="1"/><path d="M663.7,54.1 q5.4,-6.3 9.0,-1.8" fill="none" stroke="#f6c177" stroke-width="1.2"/></g><g opacity="0" transform="translate(122.5,74.0)"><animate attributeName="opacity" from="0" to="1" begin="0.15s" dur="0.5s" fill="freeze"/><animateTransform attributeName="transform" type="translate" from="122.5 84.0" to="122.5 74.0" begin="0.15s" dur="0.5s" fill="freeze"/><text x="0" y="-6" font-family="Sora, 'Segoe UI', -apple-system, sans-serif" font-size="30" font-weight="700" fill="#ea9a97" text-anchor="middle">241</text><text x="0" y="20" font-family="Sora, 'Segoe UI', -apple-system, sans-serif" font-size="11.5" fill="#908caa" text-anchor="middle">Contributions (1y)</text></g><g opacity="0" transform="translate(367.5,74.0)"><animate attributeName="opacity" from="0" to="1" begin="0.27s" dur="0.5s" fill="freeze"/><animateTransform attributeName="transform" type="translate" from="367.5 84.0" to="367.5 74.0" begin="0.27s" dur="0.5s" fill="freeze"/><text x="0" y="-6" font-family="Sora, 'Segoe UI', -apple-system, sans-serif" font-size="30" font-weight="700" fill="#f6c177" text-anchor="middle">8</text><text x="0" y="20" font-family="Sora, 'Segoe UI', -apple-system, sans-serif" font-size="11.5" fill="#908caa" text-anchor="middle">Day streak</text></g><line x1="245.0" y1="44" x2="245.0" y2="104" stroke="#26233a" stroke-width="1"/><g opacity="0" transform="translate(612.5,74.0)"><animate attributeName="opacity" from="0" to="1" begin="0.39s" dur="0.5s" fill="freeze"/><animateTransform attributeName="transform" type="translate" from="612.5 84.0" to="612.5 74.0" begin="0.39s" dur="0.5s" fill="freeze"/><text x="0" y="-6" font-family="Sora, 'Segoe UI', -apple-system, sans-serif" font-size="30" font-weight="700" fill="#9ccfd8" text-anchor="middle">2</text><text x="0" y="20" font-family="Sora, 'Segoe UI', -apple-system, sans-serif" font-size="11.5" fill="#908caa" text-anchor="middle">Repositories</text></g><line x1="490.0" y1="44" x2="490.0" y2="104" stroke="#26233a" stroke-width="1"/><g opacity="0" transform="translate(857.5,74.0)"><animate attributeName="opacity" from="0" to="1" begin="0.51s" dur="0.5s" fill="freeze"/><animateTransform attributeName="transform" type="translate" from="857.5 84.0" to="857.5 74.0" begin="0.51s" dur="0.5s" fill="freeze"/><text x="0" y="-6" font-family="Sora, 'Segoe UI', -apple-system, sans-serif" font-size="30" font-weight="700" fill="#c4a7e7" text-anchor="middle">2024</text><text x="0" y="20" font-family="Sora, 'Segoe UI', -apple-system, sans-serif" font-size="11.5" fill="#908caa" text-anchor="middle">On GitHub since</text></g><line x1="735.0" y1="44" x2="735.0" y2="104" stroke="#26233a" stroke-width="1"/></g></g><text x="16" y="490" font-family="Sora, 'Segoe UI', -apple-system, sans-serif" font-size="13" font-weight="600" fill="#e0def4">ascension</text><g transform="translate(0,496)"><defs><clipPath id="statsClip"><rect x="0" y="0" width="980" height="122" rx="14"/></clipPath></defs><rect x="0" y="0" width="980" height="122" rx="14" fill="#191724" stroke="#26233a" stroke-width="1.5"/><g clip-path="url(#statsClip)"><rect x="0" y="0" width="980" height="26" fill="#1f1d2e"/><circle cx="16" cy="13.0" r="3.5" fill="#9ccfd8"><animate attributeName="opacity" values="1;0.35;1" dur="2s" repeatCount="indefinite"/></circle><text x="26" y="17.0" font-family="Sora, 'Segoe UI', -apple-system, sans-serif" font-size="11" fill="#908caa">git log --stat --author=StazixLS</text><text x="964" y="17.0" font-family="Sora, 'Segoe UI', -apple-system, sans-serif" font-size="10.5" fill="#908caa" text-anchor="end" opacity="0.75">Ascension</text><line x1="0" y1="26" x2="980" y2="26" stroke="#26233a" stroke-width="1"/><rect x="0" y="26" width="980" height="96" fill="#1f1d2e"/><g transform="translate(0,26)" opacity="0.55"><line x1="462.5" y1="8" x2="458.5" y2="63.0" stroke="#f6c177" stroke-width="2" stroke-linecap="round" opacity="0.5"><animate attributeName="opacity" values="0.25;0.55;0.25" begin="0.0s" dur="3s" repeatCount="indefinite"/></line><line x1="479.0" y1="8" x2="477.4" y2="63.0" stroke="#f6c177" stroke-width="2" stroke-linecap="round" opacity="0.5"><animate attributeName="opacity" values="0.25;0.55;0.25" begin="0.5s" dur="3s" repeatCount="indefinite"/></line><line x1="495.5" y1="8" x2="496.3" y2="63.0" stroke="#f6c177" stroke-width="2" stroke-linecap="round" opacity="0.5"><animate attributeName="opacity" values="0.25;0.55;0.25" begin="1.0s" dur="3s" repeatCount="indefinite"/></line><line x1="512.0" y1="8" x2="515.2" y2="63.0" stroke="#f6c177" stroke-width="2" stroke-linecap="round" opacity="0.5"><animate attributeName="opacity" values="0.25;0.55;0.25" begin="1.5s" dur="3s" repeatCount="indefinite"/></line><g transform="translate(558.9,-12) scale(0.89)"><animateTransform attributeName="transform" type="translate" additive="sum" values="0 0;5.6 39.6;-5.6 79.2;0 120.0" keyTimes="0;0.33;0.66;1" begin="-1.63s" dur="8.90s" repeatCount="indefinite"/><g><animateTransform attributeName="transform" type="rotate" from="235" to="-81" begin="-1.63s" dur="8.90s" repeatCount="indefinite"/><path d="M0,-6 C3,-5 3.5,-1.5 1.6,1.5 C1,2.6 -1,2.6 -1.6,1.5 C-3.5,-1.5 -3,-5 0,-6 Z" fill="#f4c2c2"/></g></g><g transform="translate(946.9,-12) scale(1.36)"><animateTransform attributeName="transform" type="translate" additive="sum" values="0 0;5.6 39.6;-5.6 79.2;0 120.0" keyTimes="0;0.33;0.66;1" begin="-4.76s" dur="8.58s" repeatCount="indefinite"/><g><animateTransform attributeName="transform" type="rotate" from="229" to="432" begin="-4.76s" dur="8.58s" repeatCount="indefinite"/><path d="M0,-6 C3,-5 3.5,-1.5 1.6,1.5 C1,2.6 -1,2.6 -1.6,1.5 C-3.5,-1.5 -3,-5 0,-6 Z" fill="#f7d6d6"/></g></g><g transform="translate(880.9,-12) scale(1.17)"><animateTransform attributeName="transform" type="translate" additive="sum" values="0 0;-5.6 39.6;5.6 79.2;0 120.0" keyTimes="0;0.33;0.66;1" begin="-1.29s" dur="9.23s" repeatCount="indefinite"/><g><animateTransform attributeName="transform" type="rotate" from="293" to="599" begin="-1.29s" dur="9.23s" repeatCount="indefinite"/><path d="M0,-6 C3,-5 3.5,-1.5 1.6,1.5 C1,2.6 -1,2.6 -1.6,1.5 C-3.5,-1.5 -3,-5 0,-6 Z" fill="#ea9a97"/></g></g><g transform="translate(114.9,-12) scale(0.90)"><animateTransform attributeName="transform" type="translate" additive="sum" values="0 0;-5.6 39.6;5.6 79.2;0 120.0" keyTimes="0;0.33;0.66;1" begin="-0.14s" dur="7.17s" repeatCount="indefinite"/><g><animateTransform attributeName="transform" type="rotate" from="77" to="-193" begin="-0.14s" dur="7.17s" repeatCount="indefinite"/><path d="M0,-6 C3,-5 3.5,-1.5 1.6,1.5 C1,2.6 -1,2.6 -1.6,1.5 C-3.5,-1.5 -3,-5 0,-6 Z" fill="#f4c2c2"/></g></g><g transform="translate(640.4,-12) scale(0.92)"><animateTransform attributeName="transform" type="translate" additive="sum" values="0 0;5.6 39.6;-5.6 79.2;0 120.0" keyTimes="0;0.33;0.66;1" begin="-4.54s" dur="9.31s" repeatCount="indefinite"/><g><animateTransform attributeName="transform" type="rotate" from="127" to="358" begin="-4.54s" dur="9.31s" repeatCount="indefinite"/><path d="M0,-6 C3,-5 3.5,-1.5 1.6,1.5 C1,2.6 -1,2.6 -1.6,1.5 C-3.5,-1.5 -3,-5 0,-6 Z" fill="#f7d6d6"/></g></g><g transform="translate(181.7,-12) scale(1.31)"><animateTransform attributeName="transform" type="translate" additive="sum" values="0 0;-5.6 39.6;5.6 79.2;0 120.0" keyTimes="0;0.33;0.66;1" begin="-7.09s" dur="7.33s" repeatCount="indefinite"/><g><animateTransform attributeName="transform" type="rotate" from="269" to="136" begin="-7.09s" dur="7.33s" repeatCount="indefinite"/><path d="M0,-6 C3,-5 3.5,-1.5 1.6,1.5 C1,2.6 -1,2.6 -1.6,1.5 C-3.5,-1.5 -3,-5 0,-6 Z" fill="#ea9a97"/></g></g><g transform="translate(117.3,-12) scale(0.89)"><animateTransform attributeName="transform" type="translate" additive="sum" values="0 0;5.6 39.6;-5.6 79.2;0 120.0" keyTimes="0;0.33;0.66;1" begin="-7.49s" dur="7.95s" repeatCount="indefinite"/><g><animateTransform attributeName="transform" type="rotate" from="73" to="-182" begin="-7.49s" dur="7.95s" repeatCount="indefinite"/><path d="M0,-6 C3,-5 3.5,-1.5 1.6,1.5 C1,2.6 -1,2.6 -1.6,1.5 C-3.5,-1.5 -3,-5 0,-6 Z" fill="#f4c2c2"/></g></g><g transform="translate(448.6,-12) scale(1.08)"><animateTransform attributeName="transform" type="translate" additive="sum" values="0 0;-5.6 39.6;5.6 79.2;0 120.0" keyTimes="0;0.33;0.66;1" begin="-5.41s" dur="8.42s" repeatCount="indefinite"/><g><animateTransform attributeName="transform" type="rotate" from="283" to="500" begin="-5.41s" dur="8.42s" repeatCount="indefinite"/><path d="M0,-6 C3,-5 3.5,-1.5 1.6,1.5 C1,2.6 -1,2.6 -1.6,1.5 C-3.5,-1.5 -3,-5 0,-6 Z" fill="#f7d6d6"/></g></g></g><g opacity="0" transform="translate(122.5,74.0)"><animate attributeName="opacity" from="0" to="1" begin="0.15s" dur="0.5s" fill="freeze"/><animateTransform attributeName="transform" type="translate" from="122.5 84.0" to="122.5 74.0" begin="0.15s" dur="0.5s" fill="freeze"/><text x="0" y="-6" font-family="Sora, 'Segoe UI', -apple-system, sans-serif" font-size="30" font-weight="700" fill="#ea9a97" text-anchor="middle">241</text><text x="0" y="20" font-family="Sora, 'Segoe UI', -apple-system, sans-serif" font-size="11.5" fill="#908caa" text-anchor="middle">Contributions (1y)</text></g><g opacity="0" transform="translate(367.5,74.0)"><animate attributeName="opacity" from="0" to="1" begin="0.27s" dur="0.5s" fill="freeze"/><animateTransform attributeName="transform" type="translate" from="367.5 84.0" to="367.5 74.0" begin="0.27s" dur="0.5s" fill="freeze"/><text x="0" y="-6" font-family="Sora, 'Segoe UI', -apple-system, sans-serif" font-size="30" font-weight="700" fill="#f6c177" text-anchor="middle">8</text><text x="0" y="20" font-family="Sora, 'Segoe UI', -apple-system, sans-serif" font-size="11.5" fill="#908caa" text-anchor="middle">Day streak</text></g><line x1="245.0" y1="44" x2="245.0" y2="104" stroke="#26233a" stroke-width="1"/><g opacity="0" transform="translate(612.5,74.0)"><animate attributeName="opacity" from="0" to="1" begin="0.39s" dur="0.5s" fill="freeze"/><animateTransform attributeName="transform" type="translate" from="612.5 84.0" to="612.5 74.0" begin="0.39s" dur="0.5s" fill="freeze"/><text x="0" y="-6" font-family="Sora, 'Segoe UI', -apple-system, sans-serif" font-size="30" font-weight="700" fill="#9ccfd8" text-anchor="middle">2</text><text x="0" y="20" font-family="Sora, 'Segoe UI', -apple-system, sans-serif" font-size="11.5" fill="#908caa" text-anchor="middle">Repositories</text></g><line x1="490.0" y1="44" x2="490.0" y2="104" stroke="#26233a" stroke-width="1"/><g opacity="0" transform="translate(857.5,74.0)"><animate attributeName="opacity" from="0" to="1" begin="0.51s" dur="0.5s" fill="freeze"/><animateTransform attributeName="transform" type="translate" from="857.5 84.0" to="857.5 74.0" begin="0.51s" dur="0.5s" fill="freeze"/><text x="0" y="-6" font-family="Sora, 'Segoe UI', -apple-system, sans-serif" font-size="30" font-weight="700" fill="#c4a7e7" text-anchor="middle">2024</text><text x="0" y="20" font-family="Sora, 'Segoe UI', -apple-system, sans-serif" font-size="11.5" fill="#908caa" text-anchor="middle">On GitHub since</text></g><line x1="735.0" y1="44" x2="735.0" y2="104" stroke="#26233a" stroke-width="1"/></g></g></svg>